<svg id="Calque_1" data-name="Calque 1" xmlns="http://www.w3.org/2000/svg" viewBox="0 0 268 253.87"><defs><style>.cls-1{fill:#568f3d;}.cls-2{fill:#65ab47;}</style></defs><title>autraliamap2</title><path class="cls-1" d="M0,122.87v-26c3-1.39,6.16-2.44,8.82-4.27,3.79-2.6,6.8-6.55,10.83-8.55A154.79,154.79,0,0,1,40,76.18c8.68-2.86,12.88-8.93,14.65-17.61.78-3.8,3.06-7.29,4.72-11.09l3.19,1.92c2.33-1.76,3.92-2.91,5.44-4.13A12,12,0,0,0,70.37,43c3.21-4.5,6-9.41,9.61-13.53,4-4.55,9.93-4.16,14.82-.56,2.86,2.11,6.35,3.37,9.85,5.15.93-3.13,1-5.35,2.14-6.85,3.66-5,6.81-11.38,11.84-14.06,3.88-2.07,5.74-3.53,5.68-7.59a22.42,22.42,0,0,1,2.83-.16,7.59,7.59,0,0,1,2.4.57c8.51,3.73,17,7.26,26.69,5.44,2.81-.52,4.87,1.2,4.15,4a27.61,27.61,0,0,1-4.14,9.59c-3.43,4.59-4.65,9.35-1.72,11.22q12.76,8.16,25.67,16.09c3.14,1.92,6.21,1.81,7.74-2.07,1.75-4.41,3.85-8.89,4.45-13.52,1.49-11.57,1.54-23.39,7.62-33.91h2c2.95,9.35,5.91,18.69,8.93,28.26,7,.86,9.22,3.53,9.68,11.21.19,3,1.52,6,2.38,9s2.36,5.69,2.36,8.53a10.94,10.94,0,0,0,6.39,10.44c8,4,12.34,10.17,13.89,18.77.46,2.53,1.24,4.76,4.62,5.7,1.82.51,3,3.7,4.2,5.86s1.74,4.75,3,6.93c2.57,4.58,5.39,9,8.13,13.51.78,1.28,1.64,2.52,2.46,3.77v27c-1.83,3-3.74,5.88-5.47,8.89-3.11,5.41-5.4,11.47-9.3,16.21-7.82,9.5-15.45,19-19,31-.94,3.14-2.45,4.92-6,4.46A16.36,16.36,0,0,0,214.1,217c-2.54,2.44-5,2-7.86-.09-1.91-1.42-5.54-2.92-7-2.05-4.81,2.8-8.39.16-12.15-1.59a74.58,74.58,0,0,1-11.47-6.53c-1.23-.86-1.8-3.17-2-4.9-1.22-10-2.55-11-12.09-8.73-1.78.42-5.23.51-5.37,0a13.51,13.51,0,0,1-.2-6.8c.72-2.9,2.21-5.61,3.37-8.4l-1.41-1c-1.75,1.79-3.46,3.61-5.26,5.34-1,1-2.22,1.87-3.33,2.8-.93-1.21-1.93-2.37-2.77-3.63-3.41-5.12-5.62-12.46-10.38-14.95-9.21-4.83-19.68-7.84-30.5-2.84-4,1.84-8.69,2.12-12.73,3.88-4.94,2.15-11.37,4-13.87,8-4,6.51-9.39,6.74-15.23,6.75S53.33,184,49.14,188.19c-7.08,7.14-12.84,7.87-21.65,3.67-6.72-3.21-6.95-4.34-4.55-11.53a14,14,0,0,0,.14-8.41,96,96,0,0,0-6.66-14.29c-3.37-6.22-7.28-12.16-10.57-18.42-1.86-3.53-3-7.45-4.34-11.23C.91,126.31.5,124.58,0,122.87Z"/><path class="cls-1" d="M204,253.87c-1.81-7.11-3.75-14.2-5.32-21.37-.37-1.73.52-3.74.84-5.63a36.52,36.52,0,0,0,4.93,1.37c3.57.47,7.26,1.39,10.71.87,3.78-.58,4.09.9,4.4,3.86.94,8.93-1.89,16-9.56,20.9Z"/><path class="cls-2" d="M155.83,186.51c-1.85-1.95-1.85-1.95,2.11-5.22-1.7-1.4-2.44-2.73.23-3.9,2.1-.93,2-2.69,1.54-5-3.09,2.4-6.89,3.56-7.52,8.06-.1.69-1.69,1.86-2.05,1.69-1.82-.86-4.33-1.62-3.9-4.24.69-4.15-2.16-6.25-4.38-8.8a11.58,11.58,0,0,1-2.38-3.1c-1-2.67-2.36-4.23-5.55-4.45a26.17,26.17,0,0,1-7.89-2.33c-7.3-3-14.36-1.57-21.1,1.39-4.07,1.78-8,3.39-12.48,3.63a14.5,14.5,0,0,0-6,2.25c-3.8,2.19-8.11,3.82-9.48,8.87-.32,1.16-2.54,2.34-4,2.53-4.93.66-9.93.78-14.88,1.29a11.88,11.88,0,0,0-7.63,4c-4.57,4.72-9.77,9-17.18,7.33a32.67,32.67,0,0,1-5.25-2c-.81-.34-1.51-1.2-2.31-1.27-3.63-.3-3.94-2.7-3.78-5.52a10.27,10.27,0,0,1,2-6.28c1.29-1.75-.13-5.84-1-8.71-.57-1.92-2.43-3.41-3.35-5.27-1.21-2.48-2.1-5.13-3.06-7.72-.35-.93-.28-2.06-.78-2.86-3.44-5.54-6.35-11.59-10.67-16.36-3.82-4.22-3.67-8.46-3.28-13.23.07-.75.34-1.8,0-2.21C-.2,117,.26,114.44.25,112c0-4.79,0-9.59,0-14.39a7.47,7.47,0,0,1,2.63-6l.95,2.76c4.38-4.22,8.77-8.57,13.31-12.74a10.91,10.91,0,0,1,3.9-1.8c2.58-.89,5.27-1.48,7.8-2.49,4.22-1.69,8.25-3.87,12.53-5.35,5-1.73,8.91-4.29,10.72-9.54.84-2.46,3.17-4.88,3-7.15C54.61,50,57.5,47,61,43.44l2.53,4.13.75-.09a15.08,15.08,0,0,0,0-2.23c-.45-3,.77-4.41,3.52-3.65,2.49.68,2.55-.43,2.8-2.34a12.82,12.82,0,0,1,1.87-4.71,60.25,60.25,0,0,1,3.89-5.28,10.69,10.69,0,0,1,1.58-1.71c1.38-1.16,2.86-2.19,4.21-3.38C84.66,22,92,22.25,94.12,25c2.46,3.16,5.77,4,9.44,4.32,1.84.14,3.19-.16,2.48-2.65a4.22,4.22,0,0,1,.48-2.8,70.92,70.92,0,0,1,5.28-9A34.2,34.2,0,0,1,118,9c.62-.49,2,0,3.07.09s2,.19,4,.38c-2.5-2.51-2.1-3.86-.09-4.32l-1.51-3c1.18-.22,2.42-.79,3.51-.58a31.9,31.9,0,0,1,5,1.79c2.86,1.08,5.71,2.17,8.58,3.23.46.17,1,.08,1.44.31,4.71,2.8,9.7.72,14.52.67,2.55,0,3.66,1.1,4.16,2.83,1.16,4.08-1.22,9.17-5,11.66a3.49,3.49,0,0,0-1.39,1.66c-.34,1.12-.19,2.4-.58,3.49a22.94,22.94,0,0,1-2.1,3.56c2.88,1.83,5.69,3.64,8.52,5.41,1.94,1.21,3.9,2.4,5.88,3.55,2.57,1.49,5.2,2.89,7.76,4.4.91.53,1.65,1.35,2.53,1.94,2.17,1.45,4.24,3.23,6.62,4.16s3.89-.8,5-2.8a41.68,41.68,0,0,0,5.39-20.3c0-7.07.44-13.93,3.82-20.34.91-1.73,1.12-3.87,2.21-5.43,1.41-2,2.9-1.65,3.75.65,1.7,4.67,3.64,9.27,5,14,.83,2.82.81,5.88,1.22,8.83.46,3.32.74,3.46,3.85,2.55.68-.2,1.89-.25,2.17.13,2.32,3.16,6.23,5.38,5.51,10.35-.51,3.51.66,6.77,2.5,10a15.73,15.73,0,0,1,2,7.35c.06,5.41,1.23,9.36,6.88,11.91a25.41,25.41,0,0,1,10.07,8.61c2.3,3.41,2.8,8,4.06,12.16a17.81,17.81,0,0,1,.39,2.3c1.25.31,2.35.64,3.48.86,4.53.89,4.74,4.35,4.5,7.87-.17,2.67,1.22,4.19,3.07,5.73,4,3.33,6,8,7.87,12.68,3.71,9.3,1.12,19.09,1.72,28.65a4,4,0,0,1-.33,1.73c-2.19,4.88-4.69,9.63-6.57,14.62a33.29,33.29,0,0,1-9.9,13.85c-3.6,3.11-5.61,8.07-8.28,12.22-.54.83-.71,2-1.4,2.59-3.84,3.35-5.26,7.87-6.37,12.58-1.19,5-2.62,5.89-7.79,5.14-4.81-.71-8.71,1.43-12.27,4.37-4.18,3.44-4.18,3.43-8.28-.08-3.2-2.73-5.53-3-9.26-.89-1.86,1.07-3.25,1-5.15-.2a31.79,31.79,0,0,0-7.64-3.21c-7.44-2.25-10.76-6.25-11-13.95a7.6,7.6,0,0,0-4.06-6.54c-.84-.5-2.37,0-3.53.26-2.78.63-5.51,1.54-8.31,2a3.46,3.46,0,0,1-2.6-1.45C154.45,188.66,155.37,187.45,155.83,186.51Z"/><path class="cls-2" d="M219.65,231.7c.66,4.81-1,9.81-3.84,13.88-1.61,2.32-5.49,3.62-8.57,4.2s-4.86-2.17-5.44-4.93c-1.32-6.3-2.5-12.64-3.35-19-.41-3,2.17-4.34,4.75-2.26,3.72,3,7.62,2.79,11.79,1.94,4.59-.94,4.66-.87,4.66,3.88Z"/></svg>