<?xml version="1.0" encoding="UTF-8" standalone="no"?>
<!-- Created with Inkscape (http://www.inkscape.org/) -->

<svg
   xmlns:dc="http://purl.org/dc/elements/1.1/"
   xmlns:cc="http://creativecommons.org/ns#"
   xmlns:rdf="http://www.w3.org/1999/02/22-rdf-syntax-ns#"
   xmlns:svg="http://www.w3.org/2000/svg"
   xmlns="http://www.w3.org/2000/svg"
   xmlns:sodipodi="http://sodipodi.sourceforge.net/DTD/sodipodi-0.dtd"
   xmlns:inkscape="http://www.inkscape.org/namespaces/inkscape"
   width="269"
   height="258"
   viewBox="0 0 71.172915 68.262502"
   version="1.1"
   id="svg8"
   inkscape:version="0.92.4 (5da689c313, 2019-01-14)"
   sodipodi:docname="australiamap.svg">
  <defs
     id="defs2">
    <style
       id="style4518">.cls-1{fill:#65ab47;}</style>
  </defs>
  <sodipodi:namedview
     id="base"
     pagecolor="#ffffff"
     bordercolor="#666666"
     borderopacity="1.0"
     inkscape:pageopacity="0.0"
     inkscape:pageshadow="2"
     inkscape:zoom="1.979899"
     inkscape:cx="319.66037"
     inkscape:cy="133.65306"
     inkscape:document-units="mm"
     inkscape:current-layer="g4536"
     showgrid="false"
     units="px"
     inkscape:window-width="1920"
     inkscape:window-height="1017"
     inkscape:window-x="-8"
     inkscape:window-y="-8"
     inkscape:window-maximized="1" />
  <metadata
     id="metadata5">
    <rdf:RDF>
      <cc:Work
         rdf:about="">
        <dc:format>image/svg+xml</dc:format>
        <dc:type
           rdf:resource="http://purl.org/dc/dcmitype/StillImage" />
        <dc:title></dc:title>
      </cc:Work>
    </rdf:RDF>
  </metadata>
  <g
     inkscape:label="Calque 1"
     inkscape:groupmode="layer"
     id="layer1"
     transform="translate(0,-228.73748)">
    <g
       id="g4536"
       transform="matrix(0.26670267,0,0,0.2729055,0.09935021,228.81386)">
      <path
         id="path4524-4"
         transform="matrix(0.99205356,0,0,0.96950532,-0.37251299,-0.2798771)"
         style="fill:#376137;fill-opacity:1;stroke-width:1.0125972"
         d="m 202.0293,3.1660156 c -0.59073,0.00821 -1.22913,0.4413171 -1.85352,1.3339844 -1.08546,1.6016996 -1.30609,3.7862874 -2.2207,5.541016 -3.38706,6.539424 -3.78955,13.547452 -3.83985,20.75 A 41.750196,42.378733 0 0 1 188.69922,51.5 c -1.12566,2.040382 -2.6233,3.815965 -5.02539,2.867188 -2.40209,-0.94878 -4.47304,-2.764864 -6.66406,-4.244141 -0.88446,-0.652922 -1.62865,-1.488159 -2.53321,-2.039063 -2.57294,-1.540488 -5.21554,-2.970585 -7.80859,-4.480468 -1.77088,-1.044021 -3.4868,-2.122527 -5.25781,-3.216797 -0.27346,0.596047 -0.5513,1.186298 -1.00196,1.65039 -1.29345,1.332015 -2.91644,2.294886 -4.38672,3.431641 0.0854,-0.03856 0.17006,-0.07963 0.25586,-0.117188 -0.13184,0.08084 -0.30388,0.188951 -0.39648,0.242188 -10.50599,15.514668 -26.78332,8.647509 -17.4707,-7.798828 0.60978,-1.076903 2.7806,-5.600827 3.7207,-6.277344 0.66302,-0.477127 1.9361,-1.107578 3.23437,-1.722656 0.10807,-0.162757 0.21237,-0.328627 0.32032,-0.490234 0.24361,-0.364728 0.50676,-0.716171 0.77929,-1.060547 0.73986,-1.130547 1.50693,-2.295502 1.83985,-2.746094 -1.11548,-0.07165 -2.22903,-0.166658 -3.33594,-0.318359 -0.12315,-0.01688 -0.2115,-0.05207 -0.32031,-0.07813 -0.11633,0.0048 -0.23389,0.0059 -0.34961,0.01367 -1.04837,0.07018 -2.09245,0.07636 -3.14258,0.0625 -1.44931,-0.04109 -2.89806,-0.02069 -4.34766,-0.01563 -2.8537,-1.718642 -5.61546,-3.599372 -8.56054,-5.15625 -0.34004,-0.179755 0.35212,0.701879 0.63281,0.964844 0.36046,0.337701 0.7234,0.680194 1.09961,1.005859 0.18683,0.104929 0.29306,0.179536 0.22851,0.195313 0.39687,0.32683 0.81194,0.627087 1.26758,0.859375 0.9683,0.493646 2.40328,0.07036 3.14453,0.865234 0.42161,0.452109 -1.18642,0.03824 -2.48437,-0.326172 0.13572,0.135101 -0.98198,-0.280917 -1.39844,-0.388671 0.10747,0.03115 0.83188,0.229606 1.39844,0.388671 -0.0113,-0.01125 -0.0149,-0.01957 -0.0449,-0.03906 -0.78183,-0.50721 -1.59306,-0.964932 -2.41016,-1.414062 -0.26038,-0.04495 -0.59909,-0.109288 -1.0293,-0.191407 -1.99836,-0.684066 -0.0568,-0.01416 -0.0879,-0.04102 -0.38664,-0.334161 -0.78823,-0.650624 -1.18554,-0.972657 -2.73915,0.01431 -3.96374,-0.257691 -6.0293,-1.115234 -2.87388,-1.19313 -5.06654,-2.67738 -6.66016,-4.287109 a 33.398148,33.900946 0 0 0 -2.50586,2.792968 69.349146,70.393178 0 0 0 -5.33789,9.152344 4.1709994,4.2337926 0 0 0 -0.48242,2.867188 c 0.70354,2.530073 -0.6426,2.845952 -2.50195,2.703125 -3.67852,-0.326461 -7.005786,-1.184401 -9.488283,-4.408203 -2.170931,-2.81573 -9.497641,-3.12073 -12.060547,-0.845704 -1.356832,1.203826 -2.855206,2.264281 -4.242188,3.4375 a 11.296876,11.466947 0 0 0 -1.58789,1.753907 58.293486,59.171076 0 0 0 -3.828125,5.408203 12.904972,13.099252 0 0 0 -1.890625,4.804687 c -0.251267,1.948565 -0.31019,3.090651 -2.802734,2.386719 -2.763914,-0.775345 -4.001103,0.724811 -3.548829,3.734375 a 13.899981,14.109241 0 0 1 0,2.275391 l -0.753906,0.0918 -2.542969,-4.224609 c -3.487553,3.601275 -6.40097,6.663301 -5.898437,12.070313 0.180907,2.305631 -2.161326,4.773534 -3.015625,7.283203 -1.809106,5.356002 -5.748134,7.969008 -10.773438,9.74414 -4.291603,1.509883 -8.35268,3.733346 -12.583984,5.447266 -2.266026,0.918241 -4.656864,1.511814 -6.986328,2.263672 2.021046,3.072094 2.616202,7.97993 0.347656,14.140625 l -0.134766,0.367187 c 0.04439,0.14889 0.08735,0.298133 0.13086,0.447266 0.230237,4.040845 0.180228,5.687055 -1.40625,8.623045 -0.107914,0.6555 -0.201496,1.25642 -0.152344,1.34961 -0.356778,0.5879 -0.730333,1.16611 -1.097656,1.74805 0.255608,0.56432 0.495143,1.13497 0.671875,1.72851 0.411118,1.38072 0.05668,3.2821 -0.05664,4.74805 0.02567,1.2789 0.05333,2.5585 0.05078,3.83789 -0.01058,1.16424 -0.0074,2.32793 -0.0059,3.49219 1.498027,2.38858 3.105557,6.04874 4.138672,8.92773 1.501394,2.75205 1.208441,3.00688 1.619141,6.45118 -0.04905,0.54504 -0.09802,1.08984 -0.148438,1.63476 0.08003,0.2791 0.206031,0.89104 0.335938,1.55078 1.272506,2.87908 0.922172,2.42289 1.341797,6.01367 -0.0038,0.0377 -0.0079,0.0755 -0.01172,0.11329 0.257876,0.47841 0.423708,1.00827 0.226562,1.26953 -0.07875,0.10436 -0.162719,0.20477 -0.242187,0.30859 0.456826,0.99631 0.01058,0.12696 -0.0293,0.0371 -0.04485,0.0585 -0.09165,0.11551 -0.136719,0.17383 -0.0094,0.0891 -0.01766,0.17849 -0.02734,0.26758 -0.16555,1.52309 0.05052,1.47631 -0.197265,0.0195 -0.391844,0.50054 -0.789923,0.99604 -1.197266,1.48437 0.194956,0.46399 0.389737,0.97523 0.53125,1.53906 0.150421,0.26407 0.273374,0.47362 0.441406,0.77344 -0.144645,-0.4133 -0.277987,-0.8298 -0.367187,-1.25781 -0.0053,-0.0255 0.73781,1.54147 1.359375,3.01367 0.246919,0.43829 0.562436,1.01209 0.732422,1.29688 0.505615,3.31425 0.574767,4.89006 -0.181641,7.03515 1.023658,2.01592 1.075277,4.15098 0.990234,6.43555 -0.02467,0.66274 -0.153633,1.29798 -0.134765,1.96094 0.218794,4.74186 -2.009709,9.14031 -6.6875,10.74609 a 10.352119,10.507966 0 0 0 -0.703125,3.95703 c -0.160808,2.87693 0.152125,5.33457 3.810547,5.64063 0.793999,0.0612 1.506213,0.9383 2.320312,1.28515 a 30.93575,31.401478 0 0 0 5.267578,2.04102 c 7.457541,1.70372 12.684499,-2.65301 17.267579,-7.47852 a 11.980316,12.160676 0 0 1 7.677734,-4.08008 c 4.975044,-0.52028 9.990368,-0.64308 14.945312,-1.3164 1.467391,-0.19383 3.707966,-1.39665 4.019532,-2.58008 1.386991,-5.16216 5.709783,-6.81656 9.539062,-9.05078 a 14.693979,14.915192 0 0 1 6.029297,-2.30469 c 4.50267,-0.23464 8.462425,-1.87699 12.542965,-3.70312 6.78415,-3.00956 13.87009,-4.47854 21.20704,-1.41797 a 26.131563,26.524965 0 0 0 7.92968,2.37695 c 3.20614,0.23466 4.58479,1.82536 5.58985,4.53906 a 11.437584,11.609772 0 0 0 2.38086,3.16407 c 2.23123,2.61169 5.10558,4.75296 4.41211,8.97656 -0.44224,2.6729 2.091,3.45857 3.91015,4.33594 0.37187,0.17342 1.97013,-1.03088 2.06055,-1.72461 0.64324,-4.59086 4.46301,-5.77419 7.55859,-8.22266 0.51258,2.36684 0.5618,4.16297 -1.54883,5.10156 -2.68351,1.20381 -1.9293,2.56045 -0.2207,3.97852 -3.98003,3.33601 -3.98045,3.3368 -2.12109,5.32617 -0.46233,0.95898 -1.39608,2.20242 -1.13477,2.53906 a 3.5076597,3.5604665 0 0 0 2.60156,1.48047 c 2.82424,-0.45909 5.55945,-1.3983 8.35352,-2.04101 1.17592,-0.26526 2.70264,-0.76552 3.54687,-0.26563 a 7.6987604,7.8146629 0 0 1 4.0918,6.68164 c 0.24121,7.85548 3.567,11.93739 11.05469,14.22266 a 31.981012,32.462477 0 0 1 7.67969,3.28515 c 1.89955,1.21403 3.29632,1.29517 5.17578,0.19336 3.74887,-2.14241 6.09074,-1.87735 9.29687,0.91797 4.13079,3.58084 4.1292,3.58167 8.32032,0.0723 3.58804,-2.99938 7.49937,-5.17312 12.34374,-4.45899 5.19616,0.77536 6.63239,-0.14317 7.81836,-5.24414 1.11562,-4.8051 2.55269,-9.40614 6.41211,-12.83398 0.6935,-0.59171 0.86576,-1.7943 1.39844,-2.63086 2.69356,-4.24399 4.71215,-9.294 8.32031,-12.4668 a 33.428298,33.931552 0 0 0 9.95118,-14.13086 c 1.88951,-5.09075 4.40243,-9.94725 6.60351,-14.92578 a 3.6684694,3.723697 0 0 0 0.33008,-1.7539 c -0.60303,-9.75303 2.0103,-19.74074 -1.72852,-29.22852 -1.87946,-4.7745 -3.88796,-9.5383 -7.9082,-12.93555 -1.85937,-1.5711 -3.25709,-3.12137 -3.07617,-5.85547 0.23117,-3.58088 0.0197,-7.111557 -4.5332,-8.019527 -1.12567,-0.224441 -2.242,-0.560258 -3.48829,-0.886719 a 18.55341,18.832726 0 0 0 -0.40039,-2.347656 c -1.25631,-4.233793 -1.76035,-8.915681 -4.08203,-12.394531 a 25.608931,25.994466 0 0 0 -10.10937,-8.794922 c -5.67859,-2.601487 -6.85542,-6.631594 -6.92578,-12.140625 a 15.618635,15.853768 0 0 0 -2.00977,-7.507812 c -1.83925,-3.234007 -3.01619,-6.569956 -2.51367,-10.140626 0.72364,-5.070346 -3.19532,-7.344556 -5.53711,-10.568359 -0.28142,-0.387673 -1.49654,-0.327085 -2.16992,-0.123047 -3.12575,0.928374 -3.41881,0.785472 -3.8711,-2.601562 -0.41208,-3.009563 -0.3904,-6.141076 -1.22461,-9.007813 C 207.60439,14.631518 205.66397,9.9381192 203.94531,5.1738281 203.47042,3.8482178 202.7888,3.1554576 202.0293,3.1660156 Z M 26.408203,154.52148 c -0.09453,-0.16595 -0.145572,-0.24418 -0.228515,-0.38671 0.09701,0.21286 0.193408,0.42605 0.291015,0.63867 -0.01769,-0.0848 -0.04127,-0.16738 -0.0625,-0.25196 z m -0.228515,-0.38671 c -0.150505,-0.33027 -0.286851,-0.66621 -0.433594,-0.99805 -0.03447,0.0411 -0.06894,0.0821 -0.103516,0.12305 0.08857,0.10969 0.305914,0.47772 0.53711,0.875 z m -0.433594,-0.99805 c 0.04337,-0.0517 0.08765,-0.1025 0.130859,-0.1543 -0.103559,-0.24646 -0.213397,-0.51218 -0.292969,-0.69726 -0.126277,-0.29373 -0.665358,-1.08406 -0.546875,-0.78711 0.220642,0.55298 0.468205,1.09417 0.708985,1.63867 z m 1.689453,-2.09961 c 0.0096,-0.0125 0.01972,-0.0246 0.0293,-0.0371 -0.04384,-0.0956 -0.07542,-0.15725 -0.119141,-0.25391 -0.0031,0.03 -0.0067,0.0599 -0.0098,0.0898 0.0052,0.0111 0.09742,0.19623 0.09961,0.20117 z M 127.37891,20.912109 c 0.0375,-1.96e-4 0.0634,0.0023 0.10156,0.002 -0.005,-0.0025 -0.009,-0.0053 -0.0137,-0.0078 -0.0365,-0.0017 -0.0676,-0.0059 -0.10352,-0.0078 0.005,0.0044 0.0102,0.0093 0.0156,0.01367 z m -0.0156,-0.01367 c -0.0594,-0.04808 -0.11812,-0.09675 -0.17773,-0.144532 -0.38101,-0.210813 -0.75402,-0.435267 -1.12891,-0.65625 -1.31709,-0.622251 -2.83224,-1.342611 -4.86328,-2.345703 -0.2173,-0.10732 0.25455,0.424223 0.44336,0.576172 2.04852,1.648629 3.10772,2.431787 5.72656,2.570313 z m -0.17773,-0.144532 c 0.0932,0.05159 0.18777,0.101131 0.28125,0.152344 0.0448,0.002 0.0812,0.0081 0.12695,0.0098 -0.0433,4.74e-4 -0.0708,-0.0023 -0.11328,-0.002 0.73346,0.401661 1.46847,0.800386 2.20117,1.203126 0.28967,0.05 0.46386,0.07021 0.52734,0.05469 -0.0774,-0.06379 -0.15248,-0.129497 -0.22851,-0.195313 -0.40468,-0.22727 -1.4113,-0.69017 -3.12695,-1.496093 0.11279,0.08864 0.22009,0.183717 0.33203,0.273437 z m 28.69531,24.839844 c 0.01,-0.01447 0.0215,-0.02651 0.0312,-0.04102 -0.0563,0.0441 -0.11614,0.0842 -0.17188,0.128907 -0.0431,0.03454 0.10758,-0.06889 0.14063,-0.08789 z m 0.0312,-0.04102 c 0.0361,-0.0283 0.0731,-0.05591 0.10937,-0.08398 -0.0255,0.01149 -0.0507,0.02359 -0.0762,0.03516 -0.0112,0.01667 -0.022,0.03221 -0.0332,0.04883 z m 2.18945,-31.589843 c -0.004,-0.0349 -0.58113,0.324021 -0.69531,0.535156 -0.0198,0.03665 -0.037,0.07461 -0.0566,0.111328 0.23786,-0.200737 0.37611,-0.30903 0.71484,-0.605469 0.0258,-0.02258 0.0377,-0.03605 0.0371,-0.04101 z m -1.92578,4.626953 c -0.37109,0.25594 -0.74219,0.511637 -1.11328,0.767578 -0.0711,0.154568 -0.14324,0.308583 -0.21484,0.46289 0.44018,-0.413169 0.87587,-0.832528 1.32812,-1.230468 z m -1,1.175781 c -0.004,-0.04187 -0.20343,0.09399 -0.41211,0.240234 -0.075,0.160762 -0.14871,0.32214 -0.22461,0.482422 0.181,-0.177351 0.38287,-0.371111 0.46289,-0.466797 0.12241,-0.146369 0.17674,-0.227467 0.17383,-0.255859 z m -1.06055,0.712891 c -0.39556,0.300428 -0.83033,0.627616 -1.29492,0.970703 -0.0867,0.153253 -0.17424,0.30618 -0.26172,0.458984 0.52714,-0.462282 1.04878,-0.930422 1.56055,-1.412109 -10e-4,-0.0058 -0.003,-0.01178 -0.004,-0.01758 z m -1.55664,1.429687 c -0.13384,0.117379 -0.26268,0.240496 -0.39843,0.355469 -0.0812,0.204187 -0.17007,0.402144 -0.25977,0.599609 0.0728,-0.06191 0.14193,-0.124975 0.21484,-0.1875 0.14942,-0.254819 0.29658,-0.511182 0.44336,-0.767578 z m -0.39843,0.355469 c 0.0535,-0.134457 0.10831,-0.268142 0.16211,-0.402344 -0.0104,0.01294 -0.0127,0.01795 -0.0234,0.03125 -0.24965,0.308802 -0.52163,0.595673 -0.79297,0.884766 0.21751,-0.172005 0.44257,-0.334358 0.6543,-0.513672 z m 0.66015,-0.814453 c 0.16825,-0.297306 0.3377,-0.594047 0.50391,-0.892578 -0.20072,0.138432 -0.40085,0.277583 -0.60156,0.416015 -0.0395,0.07399 -0.0689,0.156132 -0.10547,0.232422 0.33175,-0.252955 0.35373,-0.164877 -0.21094,0.548828 0.13945,-0.09963 0.27149,-0.199403 0.41406,-0.304687 z m -0.20312,-0.244141 c -0.15892,0.121168 -0.40864,0.344125 -0.67188,0.582031 -0.0331,0.04443 -0.0553,0.0824 -0.0918,0.128907 -0.0415,0.09801 -0.0843,0.196161 -0.13672,0.308593 0.19846,-0.12715 0.41331,-0.274855 0.63672,-0.433593 0.0812,-0.200703 0.17152,-0.393884 0.26367,-0.585938 z m -0.76367,0.710938 c 0.0102,-0.02413 0.0238,-0.05316 0.0332,-0.07617 -0.0253,0.02296 -0.0426,0.03693 -0.0684,0.06055 -0.0202,0.05361 -0.0318,0.08035 -0.0527,0.136718 0.0367,-0.04527 0.0534,-0.07712 0.0879,-0.121093 z m -0.0879,0.121093 c -0.0872,0.107473 -0.16989,0.204977 -0.26367,0.314453 0.0629,-0.03754 0.11805,-0.06649 0.18555,-0.109374 0.0326,-0.08892 0.0467,-0.120665 0.0781,-0.205079 z m -0.26367,0.314453 c -0.10924,0.06515 -0.22991,0.143586 -0.32226,0.189454 -0.0347,0.01721 -0.0354,0.0021 -0.0469,-0.002 -0.0969,0.09189 -0.19063,0.179091 -0.28711,0.271485 -1.71857,1.848424 -1.981,2.326124 -1.40039,1.974609 0.67149,-0.610662 1.32927,-1.234751 1.95313,-1.888672 0.01,-0.02001 0.0194,-0.03855 0.0293,-0.05859 -0.23548,0.184491 -0.46291,0.379141 -0.70703,0.552734 -0.44998,0.31998 0.18702,-0.345322 0.78125,-1.039063 z m -0.0742,0.486329 c 0.0241,-0.01888 0.0483,-0.03767 0.0723,-0.05664 0.0376,-0.106517 0.0614,-0.188693 0.0996,-0.294922 -0.057,0.117432 -0.1127,0.231813 -0.17188,0.351563 z m 0.77149,-1.908203 c -0.018,0.02107 -0.14471,0.355691 -0.25586,0.642578 0.0258,-0.02427 0.0567,-0.0571 0.0801,-0.07813 0.1281,-0.377503 0.19328,-0.584892 0.17578,-0.564453 z m -8.9082,0.53125 c -0.0933,0.05257 0.47536,0.769275 0.7246,1.003906 0.81088,0.763242 1.74192,1.386692 2.61329,2.080078 L 149,25.197266 c 0.0419,-0.03822 0.083,-0.07705 0.125,-0.115235 -1.00148,-0.783788 -2.58336,-1.913229 -5.75,-3.599609 -0.0432,-0.02299 -0.0707,-0.029 -0.084,-0.02148 z m 0.28515,3.230468 c -0.0179,-0.0043 0.0154,0.03126 0.10547,0.126953 -1.48072,0.229969 -0.23049,0.214338 0.6582,0.208985 -0.44506,-0.14697 -0.72573,-0.326831 -0.76367,-0.335938 z m 4.79492,0.810547 c -0.17773,0.305844 -0.42077,0.573559 -0.6289,0.861328 0.29412,-0.28857 0.60444,-0.561981 0.9082,-0.841797 -0.0932,-0.0054 -0.18614,-0.01366 -0.2793,-0.01953 z m 0.61719,2.529297 c -0.005,-0.02267 -0.18904,0.02063 -0.41016,0.07813 -0.33573,0.256313 -0.70267,0.473938 -1.07617,0.683594 0.87526,-0.405574 1.49947,-0.704123 1.48633,-0.761719 z m 8.61914,14.357422 c -0.15881,0.400784 -0.28144,0.696785 -0.39258,0.953125 0.30228,-0.555468 0.53609,-1.315311 0.39258,-0.953125 z M 21.199219,95.748047 c -0.0022,0.0045 0.0018,0.02272 0.01172,0.06055 0.13886,0.530177 0.304352,1.052853 0.460937,1.578125 -0.04129,-0.221801 -0.07843,-0.422773 -0.130859,-0.699219 -0.05101,-0.268962 -0.326685,-0.970819 -0.341797,-0.939453 z M 6.7050781,96.416016 c -0.5235771,0.516545 -1.0494849,1.034119 -1.5722656,1.548828 -0.012028,0.06373 -0.027056,0.115065 -0.039063,0.201172 0.5507906,-0.57409 1.1032618,-1.14744 1.6113281,-1.75 z m -3.953125,0.136718 A 7.4876978,7.6004228 0 0 0 0.109375,102.67383 v 14.68945 c 0.003612,0.89825 -0.05653573,1.80767 -0.04492188,2.70313 0.29300401,0.15519 0.57536878,0.30529 0.94531248,0.50781 -0.0137781,-1.55521 -0.0802357,-3.10988 0.013672,-4.66406 0.01134,-0.1445 0.024189,-0.28907 0.035156,-0.4336 -0.15465295,-0.42702 -0.30772748,-0.85478 -0.4726563,-1.27734 -0.34857304,-2.69008 -0.6189409,-4.87336 0.484375,-7.63672 0.2137158,-0.53527 0.5045591,-1.03261 0.8203125,-1.51758 0.118838,-1.24875 0.086671,-2.54309 0.65625,-3.63867 0.1021245,-0.19644 0.2170753,-0.38372 0.3339844,-0.57031 -0.1082223,-0.55712 -0.191432,-1.116626 -0.2285156,-1.681643 -0.055253,-0.841837 0.00726,-1.674941 0.1347656,-2.5 z m 19.0566409,2.91211 -0.195313,0.533203 c -0.0045,0.143273 -0.05168,0.567893 -0.01367,0.429683 0.102582,-0.37292 0.168632,-0.68176 0.208985,-0.962886 z m -3.845703,8.007816 c -0.0024,0.006 0.0027,0.0242 0.01758,0.0625 0.29039,0.74628 0.648303,1.46796 1.001953,2.18945 -0.146926,-0.45889 -0.294481,-0.91807 -0.441406,-1.37695 -0.163354,-0.23679 -0.561154,-0.91432 -0.578125,-0.875 z m 2.246093,1.36328 c -0.06157,0.10388 -0.11466,0.19919 -0.179687,0.30664 0.05071,-0.0534 0.10163,-0.10671 0.152344,-0.16016 0.01168,-0.0477 0.01689,-0.0983 0.02734,-0.14648 z m -0.783203,2.27734 c -1.367264,2.16154 -2.758523,4.3098 -3.947265,6.57227 -0.1983,0.37741 0.776899,-0.39601 1.066406,-0.70899 0.781284,-0.84459 1.592337,-1.70266 2.113281,-2.72851 0.471054,-0.92761 0.570015,-2.00164 0.802735,-3.01563 5.88e-4,-0.003 -5.42e-4,-0.009 0,-0.0117 -0.01149,-0.0359 -0.02367,-0.0715 -0.03516,-0.10742 z m -2.916015,10.95117 c -0.0013,0.008 0.01148,0.0302 0.04297,0.0723 0.1714,0.2288 0.358088,0.4459 0.533204,0.67187 0.03362,-0.0607 0.0653,-0.1305 0.101562,-0.17968 -0.319051,-0.28455 -0.671353,-0.60487 -0.677734,-0.56446 z m 3.882812,4.44727 c 0.08749,0.20921 0.192704,0.41236 0.292969,0.61719 0.05078,0.006 -0.372522,-0.80743 -0.292969,-0.61719 z m 4.84375,20.07617 c 1.356454,2.71775 0.836668,1.68732 1.292969,2.61719 -0.128365,-0.44301 -0.271321,-0.91254 -0.453125,-1.43946 -0.157221,-0.45565 -0.559502,-0.78562 -0.839844,-1.17773 z m -7.166016,5.63867 c 0.152597,0.34983 0.315796,0.69484 0.476563,1.04102 -0.0088,-0.0352 -0.03189,-0.10576 -0.03906,-0.13672 -0.146181,-0.30178 -0.571568,-1.21166 -0.4375,-0.9043 z m 0.164063,0.99805 c 0.140112,0.32395 0.277603,0.64898 0.410156,0.97656 0.06964,0.0818 0.164002,0.17842 0.207031,0.24414 0.01904,0.0291 0.03386,0.0607 0.05273,0.0898 -0.0718,-0.24576 -0.121877,-0.44082 -0.189453,-0.67578 -0.158608,-0.21261 -0.318504,-0.42437 -0.480469,-0.63477 z m 7.367187,0.084 c -1.465273,1.73323 -3.02084,3.39407 -4.636718,4.9961 0.299529,0.60001 0.603864,1.19665 0.919922,1.78711 -0.08764,-0.12888 -0.172883,-0.29829 -0.263672,-0.38672 0.02362,0.05 0.04669,0.10035 0.07031,0.15039 0.07613,0.12058 0.13478,0.21474 0.22461,0.35351 0.0077,-0.005 0.01578,-0.009 0.02344,-0.0137 -0.01811,-0.0336 -0.03473,-0.0679 -0.05273,-0.10156 0.02238,0.0327 0.0454,0.0508 0.06836,0.0762 -0.01298,-0.0554 -0.02647,-0.0967 -0.03906,-0.1543 -0.01196,-0.0547 0.02035,0.0631 0.05664,0.15821 0.01087,-0.007 0.02234,-0.0127 0.0332,-0.0195 -0.09691,-0.16305 -0.244357,-0.38852 -0.30664,-0.50391 -0.0892,-0.16525 0.333488,0.16771 0.46289,0.4043 1.356888,-0.85816 2.665821,-1.77678 3.837891,-2.86914 0.290245,-0.27051 0.447565,-0.61137 0.521484,-0.98633 -0.278885,-0.89412 -0.510692,-1.81707 -0.851562,-2.67383 -0.05231,-0.13146 -0.05176,-0.1572 -0.06836,-0.2168 z m -3.628906,6.86524 c -0.0027,0.002 -0.0051,0.004 -0.0078,0.006 0.0053,0.006 0.01028,0.0126 0.01563,0.0176 -0.0056,-0.015 -0.0025,-0.009 -0.0078,-0.0234 z m 0.0078,0.0234 c 0.05648,0.1522 0.124241,0.30952 0.08398,0.23632 -0.02834,-0.0515 -0.05396,-0.10455 -0.08203,-0.15625 0.0057,0.0232 0.01186,0.0437 0.01758,0.0664 0.297595,0.4558 0.666866,1.00712 1.128906,1.67578 0.435016,0.62955 -0.469398,-0.77735 -1.0625,-1.76562 -0.02943,-0.007 -0.058,-0.0306 -0.08594,-0.0566 z m 0.002,0.0801 c -0.008,-0.0326 -0.01554,-0.0603 -0.02344,-0.0937 -0.0064,0.004 -0.0131,0.008 -0.01953,0.0117 0.01466,0.0272 0.02824,0.0549 0.04297,0.082 z M 20.625,158.64258 c -0.0099,0.01 -0.01944,0.0196 -0.0293,0.0293 0.06702,0.12316 0.08947,0.12298 0.09375,0.0762 -0.02032,-0.034 -0.04364,-0.0708 -0.06445,-0.10547 z m 2.458984,4.01562 c -0.0066,-0.003 -0.0065,0.003 0.002,0.0234 0.14576,0.35108 0.206497,0.51999 0.341796,0.84961 0.525428,1.11308 1.050744,2.22676 1.576172,3.33984 -0.666249,-3.00105 -0.128646,-1.31148 -1.701172,-3.97265 -0.09534,-0.10843 -0.19567,-0.23065 -0.21875,-0.24024 z m 2.529297,4.54102 c 0.0569,0.14616 0.153752,0.31529 0.263672,0.49219 -0.0574,-0.17893 -0.331284,-0.66588 -0.263672,-0.49219 z m -0.175781,1.34961 c 0.20633,0.53543 0.323406,0.8415 0.474609,1.23828 0.05498,-0.12774 0.09665,-0.21818 0.148438,-0.33594 -0.136001,-0.21223 -0.254598,-0.46501 -0.361328,-0.72461 -0.08958,-0.0633 -0.173237,-0.11657 -0.261719,-0.17773 z m 0.814453,1.16015 c -0.0936,0.12312 -0.168298,0.21821 -0.25,0.31446 0.811164,2.1273 0.895061,2.30732 0.644531,0.42968 -0.04799,-0.17198 -0.09233,-0.3451 -0.138672,-0.51757 -0.08725,-0.0526 -0.172706,-0.13013 -0.255859,-0.22657 z" />
      <path
         id="path4526-6"
         d="m 219.44,231.89829 c 0.66,4.74759 -1,9.69299 -3.85001,13.71856 -1.59999,2.29466 -5.48999,3.58046 -8.55999,4.16403 -3.07,0.58356 -4.87,-2.14632 -5.44,-4.87618 -1.32,-6.23121 -2.51,-12.50198 -3.36,-18.79252 -0.40001,-2.96725 2.18,-4.29261 4.76,-2.22543 3.71999,2.96724 7.60999,2.75952 11.79,1.90891 4.58,-0.92973 4.65,-0.8506 4.66,3.84754 z"
         class="cls-1"
         inkscape:connector-curvature="0"
         style="fill:#376137;fill-opacity:1;stroke-width:0.99452525" />
      <path
         id="path4524"
         d="m 154.82018,185.2952 c -1.84458,-1.92871 -1.84458,-1.92871 2.10383,-5.163 -1.69503,-1.37482 -2.44284,-2.6903 0.21935,-3.85742 2.09385,-0.90995 2.044,-2.65073 1.53549,-4.9454 -3.07098,2.37379 -6.85986,3.52113 -7.49799,7.97199 -0.0897,0.67257 -1.67508,1.83969 -2.044,1.67155 -1.8047,-0.85061 -4.31733,-1.61221 -3.87861,-4.2036 0.68798,-4.09479 -2.16365,-6.17186 -4.37715,-8.70391 a 11.346696,11.255736 0 0 1 -2.36308,-3.06614 c -0.99706,-2.63096 -2.36306,-4.17392 -5.54371,-4.40141 a 25.92391,25.716094 0 0 1 -7.86691,-2.30456 c -7.27864,-2.96724 -14.30801,-1.54297 -21.03825,1.37482 -4.04812,1.77046 -7.976595,3.36287 -12.443484,3.59036 a 14.577214,14.460357 0 0 0 -5.982441,2.23533 c -3.79885,2.16608 -8.086265,3.76839 -9.462227,8.77314 -0.309092,1.14733 -2.532566,2.31445 -3.988294,2.50237 -4.915571,0.6528 -9.890968,0.77149 -14.826482,1.27592 a 11.885115,11.78984 0 0 0 -7.617641,3.95632 c -4.546655,4.67835 -9.731437,8.90172 -17.129721,7.24996 a 30.689921,30.443899 0 0 1 -5.224666,-1.97816 c -0.807629,-0.33629 -1.515551,-1.1869 -2.303239,-1.24624 -3.629347,-0.29673 -3.938441,-2.68041 -3.778909,-5.46962 a 10.269856,10.187529 0 0 1 1.994148,-6.21142 c 1.286224,-1.721 -0.13959,-5.77623 -0.997074,-8.6149 -0.558361,-1.88914 -2.422888,-3.37276 -3.330225,-5.21245 -1.21643,-2.45292 -2.093855,-5.06409 -3.061016,-7.6357 -0.339005,-0.90996 -0.26921,-1.97816 -0.767746,-2.81888 -3.429933,-5.4894 -6.3413874,-11.46344 -10.6387739,-16.18136 -3.80882055,-4.17392 -3.65925949,-8.37751 -3.2704009,-13.08553 0.059824,-0.74181 0.3290342,-1.79024 0,-2.18587 -1.99414689,-2.07707 -1.49561016,-4.57944 -1.5055809,-7.00269 0,-4.74759 0,-9.49518 0,-14.242763 a 7.4281972,7.36865 0 0 1 2.6223031,-5.934483 l 0.9472198,2.729862 C 7.6720819,89.977506 12.039264,85.684896 16.575948,81.55054 a 11.13731,11.04803 0 0 1 3.888586,-1.780345 c 2.57245,-0.870391 5.254577,-1.46384 7.777173,-2.462811 4.197679,-1.661655 8.225856,-3.817851 12.48336,-5.28169 4.985367,-1.721 8.893895,-4.253046 10.688627,-9.445719 0.847512,-2.433138 3.170693,-4.826713 2.99122,-7.062035 -0.498536,-5.242127 2.392976,-8.209369 5.852821,-11.700823 l 2.522596,4.094794 0.747805,-0.08902 a 13.789526,13.678984 0 0 0 0,-2.205649 c -0.448682,-2.917788 0.777717,-4.371736 3.51967,-3.620035 2.472742,0.682466 2.532566,-0.425305 2.781834,-2.314448 a 12.802423,12.699794 0 0 1 1.874498,-4.65857 57.83026,57.366671 0 0 1 3.79885,-5.242127 11.207106,11.117265 0 0 1 1.575377,-1.701218 c 1.375961,-1.137443 2.8616,-2.166086 4.207649,-3.333201 2.542537,-2.20565 9.811203,-1.908926 11.964882,0.820936 2.46277,3.125495 5.763084,3.956323 9.412374,4.272828 1.84458,0.138472 3.18067,-0.168143 2.48272,-2.621063 a 4.1378548,4.1046842 0 0 1 0.47858,-2.779316 68.798067,68.246557 0 0 1 5.29447,-8.872053 33.132751,32.867146 0 0 1 6.18186,-5.8652466 c 0.60821,-0.48465 1.99414,0 3.06101,0.07913 1.06687,0.07913 1.99414,0.187925 3.98829,0.3857416 -2.49268,-2.4924836 -2.10383,-3.8277423 -0.0897,-4.2728285 l -1.50558,-2.9672416 c 1.16658,-0.2175978 2.40295,-0.7813737 3.49973,-0.5835576 a 31.397842,31.146146 0 0 1 4.98537,1.780345 c 2.85163,1.068207 5.70326,2.1463048 8.55489,3.1848393 0.45865,0.1681437 1.04693,0.079127 1.44575,0.3165058 4.68625,2.7595356 9.67161,0.712138 14.46754,0.662684 2.55251,0 3.65926,1.087989 4.14782,2.7990986 1.15661,4.035448 -1.21643,9.069868 -4.98536,11.532678 a 3.4498741,3.4222186 0 0 0 -1.37596,1.641874 c -0.33901,1.10777 -0.19942,2.363903 -0.57831,3.442 a 23.730348,23.540117 0 0 1 -2.09385,3.531018 c 2.8616,1.810017 5.66338,3.600253 8.4851,5.350926 1.99414,1.196787 3.88859,2.373793 5.86279,3.511235 2.57245,1.46384 5.19475,2.848552 7.74726,4.342064 0.89736,0.534103 1.6352,1.345149 2.51263,1.978161 2.17361,1.434167 4.22759,3.19473 6.61059,4.114575 2.383,0.919845 3.86864,-0.801155 4.98536,-2.779316 a 41.41843,41.086405 0 0 0 5.37423,-20.078335 c 0.0499,-6.982909 0.44868,-13.777892 3.80882,-20.1178982 0.90734,-1.7012185 1.1267,-3.8178509 2.20354,-5.3707073 1.41584,-1.97816103 2.90148,-1.63198283 3.73902,0.6527931 1.705,4.6190061 3.62934,9.1687774 5.03522,13.8471274 0.82758,2.779316 0.80763,5.815794 1.21643,8.733581 0.44869,3.283748 0.73783,3.422219 3.83874,2.522156 0.66803,-0.197816 1.87449,-0.257161 2.15367,0.118689 2.32318,3.125495 6.21177,5.331144 5.49388,10.246875 -0.49854,3.461782 0.66804,6.696075 2.49268,9.83146 a 15.494522,15.370311 0 0 1 1.99415,7.279633 c 0.0698,5.341035 1.23637,9.247903 6.86983,11.770058 a 25.405431,25.201772 0 0 1 10.03057,8.525874 c 2.30323,3.372765 2.80177,7.912645 4.04811,12.017329 a 18.405976,18.258427 0 0 1 0.39883,2.274885 c 1.23638,0.316506 2.34313,0.642902 3.45985,0.8605 4.51674,0.880282 4.72612,4.3025 4.49679,7.774169 -0.17947,2.650741 1.20646,4.154141 3.05106,5.677321 3.98829,3.29364 5.98243,7.91265 7.84696,12.54155 3.70911,9.19844 1.11672,18.88154 1.71496,28.33715 a 3.6393181,3.6101439 0 0 1 -0.32903,1.70122 c -2.18359,4.82671 -4.67627,9.53474 -6.55077,14.47025 a 33.162662,32.896819 0 0 1 -9.87103,13.69876 c -3.57949,3.07605 -5.58361,7.97199 -8.25576,12.08657 -0.52845,0.81105 -0.69795,1.97816 -1.38594,2.55183 -3.82876,3.32331 -5.25458,7.78406 -6.36133,12.44263 -1.17655,4.9454 -2.60236,5.83558 -7.75722,5.08387 -4.8059,-0.69235 -8.68452,1.41439 -12.24407,4.32229 -4.1578,3.40243 -4.1578,3.40243 -8.25577,-0.0692 -3.18066,-2.71008 -5.50385,-2.96724 -9.22293,-0.89017 -1.86453,1.0682 -3.25046,0.98908 -5.13492,-0.18793 a 31.726877,31.472543 0 0 0 -7.61765,-3.18484 c -7.42819,-2.21554 -10.72851,-6.17186 -10.9678,-13.78778 a 7.6375826,7.5763569 0 0 0 -4.0581,-6.47848 c -0.83754,-0.48465 -2.35308,0 -3.51966,0.25716 -2.77187,0.62312 -5.4839,1.53308 -8.28568,1.97816 a 3.4797863,3.4518911 0 0 1 -2.58243,-1.43416 c -0.25923,-0.3264 0.66805,-1.53308 1.1267,-2.46281 z"
         class="cls-1"
         inkscape:connector-curvature="0"
         style="fill:#65ab47;stroke-width:0.99306893" />
      <path
         id="path4526"
         d="m 219.44,230.00164 c 0.66,4.74758 -1,9.69299 -3.85,13.71854 -1.6,2.29467 -5.49,3.58048 -8.56,4.16403 -3.07,0.58356 -4.87,-2.1463 -5.44,-4.87616 -1.32,-6.23121 -2.51,-12.50198 -3.36,-18.79253 -0.4,-2.96725 2.18,-4.29261 4.76,-2.22543 3.72,2.96724 7.61,2.75953 11.79,1.90892 4.58,-0.92973 4.65,-0.85061 4.66,3.84752 z"
         class="cls-1"
         inkscape:connector-curvature="0"
         style="fill:#65ab47;stroke-width:0.99452525" />
    </g>
  </g>
</svg>
