<?xml version="1.0" encoding="UTF-8" standalone="no"?>
<!-- Created with Inkscape (http://www.inkscape.org/) -->

<svg
   xmlns:dc="http://purl.org/dc/elements/1.1/"
   xmlns:cc="http://creativecommons.org/ns#"
   xmlns:rdf="http://www.w3.org/1999/02/22-rdf-syntax-ns#"
   xmlns:svg="http://www.w3.org/2000/svg"
   xmlns="http://www.w3.org/2000/svg"
   xmlns:sodipodi="http://sodipodi.sourceforge.net/DTD/sodipodi-0.dtd"
   xmlns:inkscape="http://www.inkscape.org/namespaces/inkscape"
   width="269"
   height="258"
   viewBox="0 0 71.172915 68.262502"
   version="1.1"
   id="svg8"
   inkscape:version="0.92.4 (5da689c313, 2019-01-14)"
   sodipodi:docname="australiamapborder.svg">
  <defs
     id="defs2">
    <style
       id="style4518">.cls-1{fill:#65ab47;}</style>
  </defs>
  <sodipodi:namedview
     id="base"
     pagecolor="#ffffff"
     bordercolor="#666666"
     borderopacity="1.0"
     inkscape:pageopacity="0.0"
     inkscape:pageshadow="2"
     inkscape:zoom="1.979899"
     inkscape:cx="319.66037"
     inkscape:cy="133.65306"
     inkscape:document-units="mm"
     inkscape:current-layer="g4536"
     showgrid="false"
     units="px"
     inkscape:window-width="1920"
     inkscape:window-height="1017"
     inkscape:window-x="-8"
     inkscape:window-y="-8"
     inkscape:window-maximized="1" />
  <metadata
     id="metadata5">
    <rdf:RDF>
      <cc:Work
         rdf:about="">
        <dc:format>image/svg+xml</dc:format>
        <dc:type
           rdf:resource="http://purl.org/dc/dcmitype/StillImage" />
        <dc:title></dc:title>
      </cc:Work>
    </rdf:RDF>
  </metadata>
  <g
     inkscape:label="Calque 1"
     inkscape:groupmode="layer"
     id="layer1"
     transform="translate(0,-228.73748)">
    <g
       id="g4536"
       transform="matrix(0.26670267,0,0,0.2729055,0.09935021,228.81386)">
      <path
         id="path4524-4"
         d="m 154.82018,187.66138 c -1.84458,-1.91365 -1.84458,-1.91365 2.10382,-5.12268 -1.69502,-1.3641 -2.44283,-2.66931 0.21936,-3.8273 2.09385,-0.90287 2.04399,-2.63006 1.53549,-4.9068 -3.07098,2.35527 -6.85986,3.49363 -7.49799,7.90974 -0.0897,0.66733 -1.67509,1.82533 -2.044,1.65851 -1.8047,-0.84397 -4.31733,-1.59962 -3.87861,-4.17078 0.68798,-4.06283 -2.16365,-6.12368 -4.37715,-8.63596 a 11.346696,11.167868 0 0 1 -2.36308,-3.04222 c -0.99707,-2.61041 -2.36306,-4.14132 -5.54372,-4.36705 a 25.92391,25.515343 0 0 1 -7.8669,-2.28657 c -7.27864,-2.94407 -14.30801,-1.5309 -21.03825,1.3641 -4.04812,1.75663 -7.9766,3.33662 -12.44349,3.56233 a 14.577214,14.347474 0 0 0 -5.98244,2.21787 c -3.79885,2.14918 -8.08626,3.73898 -9.46223,8.70466 -0.30909,1.13838 -2.53256,2.29639 -3.98829,2.48284 -4.91557,0.64769 -9.89097,0.76547 -14.82648,1.26595 a 11.885115,11.697803 0 0 0 -7.61764,3.92544 c -4.54666,4.64182 -9.73144,8.83223 -17.12972,7.19336 a 30.689921,30.206241 0 0 1 -5.22467,-1.96272 c -0.80763,-0.33365 -1.51555,-1.17762 -2.30324,-1.23651 -3.62935,-0.2944 -3.93844,-2.65949 -3.77891,-5.42691 a 10.269857,10.108 0 0 1 1.99415,-6.16294 c 1.28622,-1.70757 -0.13959,-5.73114 -0.99707,-8.54764 -0.55836,-1.87439 -2.42289,-3.34644 -3.33023,-5.17177 -1.21643,-2.43377 -2.09385,-5.02456 -3.06101,-7.57609 -0.33901,-0.90285 -0.26922,-1.96272 -0.76775,-2.79688 C 11.7202,147.25883 8.80874,141.33141 4.51136,136.65033 0.70253,132.509 0.8521,128.33821 1.24095,123.66695 c 0.0598,-0.73602 0.32904,-1.77628 0,-2.16881 -1.99414,-2.06086 -1.49561,-4.54369 -1.50558,-6.94802 0,-4.71052 0,-9.42105 0,-14.13158 a 7.4281973,7.3111271 0 0 1 2.62231,-5.888154 l 0.94722,2.708552 c 4.36718,-4.15115 8.73436,-8.41025 13.27104,-12.512332 a 11.13731,10.961784 0 0 1 3.88859,-1.766446 c 2.57245,-0.863596 5.25458,-1.452412 7.77717,-2.443586 4.19768,-1.648683 8.22586,-3.788047 12.48336,-5.240458 4.98537,-1.707565 8.8939,-4.219846 10.68863,-9.371982 0.84751,-2.414143 3.17069,-4.789034 2.99122,-7.006906 -0.49854,-5.201204 2.39298,-8.145282 5.85282,-11.609481 l 2.5226,4.062828 0.7478,-0.08832 a 13.789526,13.572199 0 0 0 0,-2.188431 c -0.44868,-2.895011 0.77772,-4.337608 3.51967,-3.591776 2.47274,0.677139 2.53257,-0.421983 2.78184,-2.29638 a 12.802423,12.600653 0 0 1 1.87449,-4.622201 57.83026,56.918842 0 0 1 3.79885,-5.201203 11.207106,11.030479 0 0 1 1.57538,-1.687939 c 1.37596,-1.128562 2.8616,-2.149176 4.20765,-3.30718 2.54254,-2.188432 9.8112,-1.894024 11.96488,0.814528 2.46277,3.101095 5.76309,3.925437 9.41238,4.239471 1.84458,0.137391 3.18067,-0.16683 2.48272,-2.600601 a 4.1378548,4.0726413 0 0 1 0.47858,-2.75762 68.798067,67.713795 0 0 1 5.29447,-8.802793 33.132752,32.610571 0 0 1 6.18186,-5.81946 c 0.60821,-0.480867 1.99414,0 3.06101,0.07851 1.06687,0.07851 1.99414,0.186459 3.98829,0.382731 -2.49268,-2.473027 -2.10383,-3.797861 -0.0897,-4.2394734 l -1.50558,-2.9440779 c 1.16659,-0.215899 2.40296,-0.7752738 3.49974,-0.5790019 a 31.397842,30.903005 0 0 1 4.98537,1.7664466 c 2.85163,1.0598683 5.70325,2.1295496 8.55489,3.1599766 0.45865,0.166831 1.04693,0.07851 1.44575,0.314035 4.68624,2.737993 9.67161,0.706579 14.46753,0.657511 2.55252,0 3.65926,1.079496 4.14783,2.777248 1.15661,4.003945 -1.21644,8.999064 -4.98537,11.442649 a 3.4498741,3.3955032 0 0 0 -1.37596,1.629056 c -0.339,1.099122 -0.19941,2.345449 -0.5783,3.415131 a 23.730348,23.356353 0 0 1 -2.09385,3.503452 c 2.8616,1.795887 5.66337,3.572148 8.48509,5.309153 1.99415,1.187443 3.88859,2.355261 5.8628,3.483824 2.57245,1.452413 5.19475,2.826315 7.74725,4.308168 0.89737,0.529934 1.63521,1.334649 2.51264,1.962718 2.17361,1.422972 4.22759,3.169791 6.61059,4.082455 2.383,0.912664 3.86864,-0.794901 4.98535,-2.757619 a 41.418431,40.765667 0 0 0 5.37424,-19.921592 c 0.0499,-6.928396 0.44868,-13.670336 3.80882,-19.960849 0.90734,-1.6879375 1.1267,-3.7880467 2.20354,-5.3287808 1.41584,-1.9627186 2.90148,-1.6192428 3.73902,0.6476971 1.705,4.5829477 3.62934,9.0972007 5.03521,13.7390307 0.82758,2.75762 0.80763,5.770393 1.21644,8.665402 0.44869,3.258114 0.73783,3.395504 3.83874,2.502467 0.66803,-0.196272 1.87449,-0.255153 2.15367,0.117763 2.32318,3.101095 6.21176,5.289527 5.49387,10.166881 -0.49853,3.434756 0.66805,6.643802 2.49269,9.754711 a 15.494522,15.250324 0 0 1 1.99414,7.222804 c 0.0698,5.299341 1.23638,9.175711 6.86984,11.678177 a 25.405431,25.005036 0 0 1 10.03057,8.459318 c 2.30323,3.346434 2.80177,7.850874 4.0481,11.923516 a 18.405976,18.115894 0 0 1 0.39884,2.257126 c 1.23638,0.314034 2.34313,0.637884 3.45985,0.853782 4.51674,0.873411 4.72612,4.268909 4.49679,7.713485 -0.17948,2.63003 1.20646,4.12169 3.05106,5.63299 3.98829,3.26794 5.98243,7.85088 7.84696,12.44365 3.70911,9.12664 1.11672,18.73415 1.71496,28.11594 a 3.6393181,3.5819615 0 0 1 -0.32903,1.68794 c -2.18359,4.78903 -4.67627,9.4603 -6.55077,14.35728 a 33.162662,32.640012 0 0 1 -9.87103,13.59183 c -3.57949,3.05203 -5.58361,7.90976 -8.25576,11.99221 -0.52845,0.80472 -0.69795,1.96273 -1.38594,2.53191 -3.82876,3.29736 -5.25458,7.72329 -6.36133,12.34549 -1.17655,4.90681 -2.60236,5.79004 -7.75722,5.0442 -4.8059,-0.68696 -8.68452,1.40334 -12.24407,4.28854 -4.15781,3.37588 -4.15781,3.37588 -8.25577,-0.0686 -3.18066,-2.68893 -5.50386,-2.94408 -9.22294,-0.88322 -1.86452,1.05988 -3.25045,0.98135 -5.13491,-0.18646 a 31.726877,31.226854 0 0 0 -7.61766,-3.15998 c -7.42819,-2.19828 -10.7285,-6.12372 -10.96779,-13.68019 a 7.6375827,7.5172126 0 0 0 -4.05811,-6.4279 c -0.83753,-0.48086 -2.35307,0 -3.51965,0.25516 -2.77187,0.61825 -5.4839,1.5211 -8.28569,1.96271 a 3.4797863,3.4249441 0 0 1 -2.58242,-1.42297 c -0.25923,-0.32383 0.66805,-1.5211 1.1267,-2.44359 z"
         class="cls-1"
         inkscape:connector-curvature="0"
         style="fill:#376137;fill-opacity:1;stroke-width:0.98918515" />
      <path
         id="path4526-6"
         d="m 219.44,232.01882 c 0.66,4.71053 -1,9.61733 -3.85001,13.61147 -1.59999,2.27675 -5.48999,3.55251 -8.55999,4.13152 -3.07,0.57901 -4.87,-2.12956 -5.44,-4.83811 -1.32,-6.18257 -2.51,-12.40438 -3.36,-18.64582 -0.40001,-2.94408 2.18,-4.2591 4.76,-2.20805 3.71999,2.94407 7.60999,2.73797 11.79,1.894 4.58,-0.92247 4.65,-0.84396 4.66,3.81751 z"
         class="cls-1"
         inkscape:connector-curvature="0"
         style="fill:#376137;fill-opacity:1;stroke-width:0.99063575" />
      <path
         id="path4524"
         d="m 154.82018,183.85567 c -1.84458,-1.91366 -1.84458,-1.91366 2.10383,-5.1227 -1.69503,-1.36409 -2.44284,-2.6693 0.21935,-3.82731 2.09385,-0.90284 2.044,-2.63003 1.53549,-4.90679 -3.07098,2.35526 -6.85986,3.49364 -7.49799,7.90976 -0.0897,0.66732 -1.67508,1.82533 -2.044,1.6585 -1.8047,-0.84397 -4.31733,-1.59963 -3.87861,-4.17079 0.68798,-4.06282 -2.16365,-6.12368 -4.37715,-8.63596 a 11.346696,11.167868 0 0 1 -2.36308,-3.0422 c -0.99706,-2.61043 -2.36306,-4.14134 -5.54371,-4.36705 a 25.92391,25.515342 0 0 1 -7.86691,-2.28657 c -7.27864,-2.94408 -14.30801,-1.53093 -21.03825,1.36408 -4.04812,1.75664 -7.976595,3.33662 -12.443484,3.56234 a 14.577214,14.347473 0 0 0 -5.982441,2.21788 c -3.79885,2.14917 -8.086265,3.73897 -9.462227,8.70465 -0.309092,1.13837 -2.532566,2.29638 -3.988294,2.48283 -4.915571,0.64771 -9.890968,0.76547 -14.826482,1.26596 a 11.885115,11.697803 0 0 0 -7.617641,3.92544 c -4.546655,4.64183 -9.731437,8.83223 -17.129721,7.19336 a 30.689921,30.20624 0 0 1 -5.224666,-1.96272 c -0.807629,-0.33366 -1.515551,-1.17763 -2.303239,-1.23651 -3.629347,-0.29441 -3.938441,-2.65948 -3.778909,-5.42692 a 10.269856,10.108 0 0 1 1.994148,-6.16293 c 1.286224,-1.70756 -0.13959,-5.73114 -0.997074,-8.54765 -0.558361,-1.87439 -2.422888,-3.34643 -3.330225,-5.17176 -1.21643,-2.43377 -2.093855,-5.02455 -3.061016,-7.57609 -0.339005,-0.90286 -0.26921,-1.96272 -0.767746,-2.79687 C 11.7202,143.4531 8.8087456,137.5257 4.5113591,132.84461 0.70253855,128.70327 0.85209961,124.53249 1.2409582,119.86123 c 0.059824,-0.73602 0.3290342,-1.77627 0,-2.16881 -1.99414689,-2.06085 -1.49561016,-4.54369 -1.5055809,-6.94802 0,-4.71053 0,-9.42106 0,-14.131579 a 7.4281972,7.3111268 0 0 1 2.6223031,-5.888156 l 0.9472198,2.708552 C 7.6720819,89.282068 12.039264,85.022968 16.575948,80.920886 a 11.13731,10.961784 0 0 1 3.888586,-1.766446 c 2.57245,-0.863597 5.254577,-1.452413 7.777173,-2.443586 4.197679,-1.648683 8.225856,-3.788047 12.48336,-5.240458 4.985367,-1.707565 8.893895,-4.219845 10.688627,-9.371981 0.847512,-2.414144 3.170693,-4.789034 2.99122,-7.006906 -0.498536,-5.201204 2.392976,-8.145283 5.852821,-11.609481 l 2.522596,4.062828 0.747805,-0.08833 a 13.789526,13.572199 0 0 0 0,-2.18843 c -0.448682,-2.895011 0.777717,-4.337608 3.51967,-3.591776 2.472742,0.677139 2.532566,-0.421984 2.781834,-2.29638 a 12.802423,12.600653 0 0 1 1.874498,-4.622203 57.83026,56.91884 0 0 1 3.79885,-5.201204 11.207106,11.030478 0 0 1 1.575377,-1.687938 c 1.375961,-1.128563 2.8616,-2.149176 4.207649,-3.30718 2.542537,-2.188432 9.811203,-1.894024 11.964882,0.814527 2.46277,3.101096 5.763084,3.925438 9.412374,4.239472 1.84458,0.137391 3.18067,-0.16683 2.48272,-2.600601 a 4.1378548,4.0726411 0 0 1 0.47858,-2.75762 68.798067,67.713792 0 0 1 5.29447,-8.802793 33.132751,32.61057 0 0 1 6.18186,-5.8194601 c 0.60821,-0.4808666 1.99414,0 3.06101,0.078512 1.06687,0.078512 1.99414,0.186458 3.98829,0.3827311 -2.49268,-2.4730269 -2.10383,-3.7978619 -0.0897,-4.2394736 l -1.50558,-2.9440779 c 1.16658,-0.2158991 2.40295,-0.7752739 3.49973,-0.5790021 a 31.397842,30.903004 0 0 1 4.98537,1.7664468 c 2.85163,1.0598681 5.70326,2.1295498 8.55489,3.159977 0.45865,0.1668311 1.04693,0.078509 1.44575,0.314035 4.68625,2.7379938 9.67161,0.7065787 14.46754,0.6575108 2.55251,0 3.65926,1.0794956 4.14782,2.777248 1.15661,4.003945 -1.21643,8.999064 -4.98536,11.442648 a 3.4498741,3.3955031 0 0 0 -1.37596,1.629057 c -0.33901,1.099122 -0.19942,2.345449 -0.57831,3.41513 a 23.730348,23.356352 0 0 1 -2.09385,3.503453 c 2.8616,1.795887 5.66338,3.572148 8.4851,5.309154 1.99414,1.187445 3.88859,2.355263 5.86279,3.483825 2.57245,1.452413 5.19475,2.826315 7.74726,4.308168 0.89736,0.529933 1.6352,1.334648 2.51263,1.962718 2.17361,1.422972 4.22759,3.169791 6.61059,4.082455 2.383,0.912664 3.86864,-0.794901 4.98536,-2.757619 a 41.41843,40.765665 0 0 0 5.37423,-19.921594 c 0.0499,-6.928397 0.44868,-13.670336 3.80882,-19.9608489 0.90734,-1.687938 1.1267,-3.788047 2.20354,-5.3287811 1.41584,-1.96271853 2.90148,-1.61924276 3.73902,0.6476971 1.705,4.582948 3.62934,9.0972019 5.03522,13.7390309 0.82758,2.757619 0.80763,5.770393 1.21643,8.665402 0.44869,3.258114 0.73783,3.395504 3.83874,2.502467 0.66803,-0.196272 1.87449,-0.255153 2.15367,0.117762 2.32318,3.101096 6.21177,5.289527 5.49388,10.166884 -0.49854,3.434757 0.66804,6.643802 2.49268,9.754711 a 15.494522,15.250323 0 0 1 1.99415,7.222804 c 0.0698,5.299341 1.23637,9.17571 6.86983,11.678176 a 25.405431,25.005035 0 0 1 10.03057,8.459317 c 2.30323,3.346435 2.80177,7.850875 4.04811,11.923516 a 18.405976,18.115893 0 0 1 0.39883,2.257126 c 1.23638,0.314035 2.34313,0.637883 3.45985,0.853782 4.51674,0.873411 4.72612,4.268913 4.49679,7.713481 -0.17947,2.630042 1.20646,4.121702 3.05106,5.632992 3.98829,3.26793 5.98243,7.85088 7.84696,12.44365 3.70911,9.12663 1.11672,18.73414 1.71496,28.11594 a 3.6393181,3.5819614 0 0 1 -0.32903,1.68793 c -2.18359,4.78904 -4.67627,9.46031 -6.55077,14.35729 a 33.162662,32.640011 0 0 1 -9.87103,13.59182 c -3.57949,3.05204 -5.58361,7.90976 -8.25576,11.99222 -0.52845,0.80472 -0.69795,1.96272 -1.38594,2.53191 -3.82876,3.29737 -5.25458,7.72329 -6.36133,12.3455 -1.17655,4.90679 -2.60236,5.79002 -7.75722,5.04418 -4.8059,-0.68695 -8.68452,1.40335 -12.24407,4.28855 -4.1578,3.37587 -4.1578,3.37587 -8.25577,-0.0687 -3.18066,-2.68893 -5.50385,-2.94408 -9.22293,-0.88322 -1.86453,1.05986 -3.25046,0.98136 -5.13492,-0.18647 a 31.726877,31.226853 0 0 0 -7.61765,-3.15997 c -7.42819,-2.19825 -10.72851,-6.12368 -10.9678,-13.68015 a 7.6375826,7.5172123 0 0 0 -4.0581,-6.42791 c -0.83754,-0.48086 -2.35308,0 -3.51966,0.25516 -2.77187,0.61825 -5.4839,1.52111 -8.28568,1.96271 a 3.4797863,3.424944 0 0 1 -2.58243,-1.42296 c -0.25923,-0.32385 0.66805,-1.52111 1.1267,-2.44358 z"
         class="cls-1"
         inkscape:connector-curvature="0"
         style="fill:#65ab47;stroke-width:0.98918515" />
      <path
         id="path4526"
         d="m 219.44,228.21311 c 0.66,4.71052 -1,9.61732 -3.85,13.61144 -1.6,2.27676 -5.49,3.55253 -8.56,4.13153 -3.07,0.579 -4.87,-2.12955 -5.44,-4.8381 -1.32,-6.18256 -2.51,-12.40438 -3.36,-18.64582 -0.4,-2.94409 2.18,-4.2591 4.76,-2.20806 3.72,2.94408 7.61,2.73799 11.79,1.89402 4.58,-0.92248 4.65,-0.84397 4.66,3.81748 z"
         class="cls-1"
         inkscape:connector-curvature="0"
         style="fill:#65ab47;stroke-width:0.99063575" />
    </g>
  </g>
</svg>
