<svg id="Calque_1" data-name="Calque 1" xmlns="http://www.w3.org/2000/svg" viewBox="0 0 269 258"><defs><style>.cls-1{fill:#416b2e;}.cls-2{fill:#65ab47;}</style></defs><title>autraliamap3</title><path class="cls-1" d="M165,416.89v-26c3-1.4,6.16-2.44,8.82-4.27,3.79-2.61,6.8-6.55,10.83-8.56A153.36,153.36,0,0,1,205,370.2c8.68-2.87,12.88-8.94,14.65-17.61.78-3.8,3.06-7.3,4.72-11.09l3.19,1.92c2.33-1.77,3.92-2.91,5.44-4.13a12.25,12.25,0,0,0,2.35-2.25c3.21-4.51,6-9.41,9.61-13.53,4-4.55,9.93-4.17,14.82-.56,2.86,2.11,6.35,3.37,9.85,5.15.93-3.13,1-5.35,2.14-6.85,3.66-5,6.81-11.38,11.84-14.07,3.88-2.06,5.74-3.52,5.68-7.58a20.68,20.68,0,0,1,2.83-.16,7.59,7.59,0,0,1,2.4.57c8.51,3.73,17,7.26,26.69,5.44,2.81-.53,4.87,1.2,4.15,4a27.48,27.48,0,0,1-4.14,9.58c-3.43,4.6-4.65,9.36-1.72,11.23q12.76,8.16,25.67,16.09c3.14,1.92,6.21,1.81,7.74-2.07,1.75-4.42,3.85-8.9,4.45-13.52,1.49-11.57,1.54-23.39,7.62-33.91h2c2.95,9.34,5.91,18.69,8.93,28.26,7.05.86,9.22,3.53,9.68,11.21.19,3,1.52,6,2.38,9s2.36,5.68,2.36,8.52a10.92,10.92,0,0,0,6.39,10.44c8,4,12.34,10.18,13.89,18.78.46,2.52,1.24,4.75,4.62,5.7,1.82.51,3,3.7,4.2,5.86s1.74,4.75,3,6.92c2.57,4.58,5.39,9,8.13,13.51.78,1.29,1.64,2.52,2.46,3.78v27c-1.83,3-3.74,5.87-5.47,8.89-3.11,5.41-5.4,11.47-9.3,16.21-7.82,9.5-15.45,18.95-19,31-.94,3.14-2.45,4.92-6,4.46A16.33,16.33,0,0,0,379.1,511c-2.54,2.44-5,2.05-7.86-.1-1.91-1.41-5.54-2.91-7-2-4.81,2.8-8.39.15-12.15-1.59a73.81,73.81,0,0,1-11.47-6.54c-1.23-.86-1.8-3.16-2-4.89-1.22-10-2.55-11-12.09-8.73-1.78.42-5.23.51-5.37,0a13.55,13.55,0,0,1-.2-6.81c.72-2.89,2.21-5.6,3.37-8.39l-1.41-1c-1.75,1.78-3.46,3.6-5.26,5.34-1,1-2.22,1.87-3.33,2.8-.93-1.21-1.93-2.37-2.77-3.63-3.41-5.13-5.62-12.47-10.38-15-9.21-4.82-19.68-7.83-30.5-2.83-4,1.84-8.69,2.11-12.73,3.87-4.94,2.15-11.37,4-13.87,8-4,6.5-9.39,6.74-15.23,6.74s-10.48,1.68-14.67,5.91c-7.08,7.15-12.84,7.88-21.65,3.68-6.72-3.21-7-4.34-4.55-11.53a14.07,14.07,0,0,0,.14-8.42,96.36,96.36,0,0,0-6.66-14.28c-3.37-6.22-7.28-12.16-10.57-18.43-1.86-3.52-3-7.45-4.34-11.22C165.91,420.33,165.5,418.59,165,416.89Z" transform="translate(-164 -289.89)"/><path class="cls-1" d="M369,547.89c-1.81-7.12-3.75-14.2-5.32-21.37-.37-1.73.52-3.75.84-5.63a35.06,35.06,0,0,0,4.93,1.36c3.57.48,7.26,1.4,10.71.87,3.78-.57,4.09.91,4.4,3.87.94,8.92-1.89,16-9.56,20.9Z" transform="translate(-164 -289.89)"/><path class="cls-2" d="M164,409.89v-26c3-1.4,6.16-2.44,8.82-4.27,3.79-2.61,6.8-6.55,10.83-8.56A153.36,153.36,0,0,1,204,363.2c8.68-2.87,12.88-8.94,14.65-17.61.78-3.8,3.06-7.3,4.72-11.09l3.19,1.92c2.33-1.77,3.92-2.91,5.44-4.13a12.25,12.25,0,0,0,2.35-2.25c3.21-4.51,6-9.41,9.61-13.53,4-4.55,9.93-4.17,14.82-.56,2.86,2.11,6.35,3.37,9.85,5.15.93-3.13,1-5.35,2.14-6.85,3.66-5,6.81-11.38,11.84-14.07,3.88-2.06,5.74-3.52,5.68-7.58a20.68,20.68,0,0,1,2.83-.16,7.59,7.59,0,0,1,2.4.57c8.51,3.73,17,7.26,26.69,5.44,2.81-.53,4.87,1.2,4.15,4a27.48,27.48,0,0,1-4.14,9.58c-3.43,4.6-4.65,9.36-1.72,11.23q12.76,8.16,25.67,16.09c3.14,1.92,6.21,1.81,7.74-2.07,1.75-4.42,3.85-8.9,4.45-13.52,1.49-11.57,1.54-23.39,7.62-33.91h2c2.95,9.34,5.91,18.69,8.93,28.26,7.05.86,9.22,3.53,9.68,11.21.19,3,1.52,6,2.38,9s2.36,5.68,2.36,8.52a10.92,10.92,0,0,0,6.39,10.44c8,4,12.34,10.18,13.89,18.78.46,2.52,1.24,4.75,4.62,5.7,1.82.51,3,3.7,4.2,5.86s1.74,4.75,3,6.92c2.57,4.58,5.39,9,8.13,13.51.78,1.29,1.64,2.52,2.46,3.78v27c-1.83,3-3.74,5.87-5.47,8.89-3.11,5.41-5.4,11.47-9.3,16.21-7.82,9.5-15.45,18.95-19,31-.94,3.14-2.45,4.92-6,4.46A16.33,16.33,0,0,0,378.1,504c-2.54,2.44-5,2-7.86-.1-1.91-1.41-5.54-2.91-7-2-4.81,2.8-8.39.15-12.15-1.59a73.81,73.81,0,0,1-11.47-6.54c-1.23-.86-1.8-3.16-2-4.89-1.22-10-2.55-11-12.09-8.73-1.78.42-5.23.51-5.37,0a13.55,13.55,0,0,1-.2-6.81c.72-2.89,2.21-5.6,3.37-8.39l-1.41-1c-1.75,1.78-3.46,3.6-5.26,5.34-1,1-2.22,1.87-3.33,2.8-.93-1.21-1.93-2.37-2.77-3.63-3.41-5.13-5.62-12.47-10.38-15-9.21-4.82-19.68-7.83-30.5-2.83-4,1.84-8.69,2.11-12.73,3.87-4.94,2.15-11.37,4-13.87,8-4,6.5-9.39,6.74-15.23,6.74s-10.48,1.68-14.67,5.91c-7.08,7.15-12.84,7.88-21.65,3.68-6.72-3.21-7-4.34-4.55-11.53a14.07,14.07,0,0,0,.14-8.42,96.36,96.36,0,0,0-6.66-14.28c-3.37-6.22-7.28-12.16-10.57-18.43-1.86-3.52-3-7.45-4.34-11.22C164.91,413.33,164.5,411.59,164,409.89Z" transform="translate(-164 -289.89)"/><path class="cls-2" d="M368,540.89c-1.81-7.12-3.75-14.2-5.32-21.37-.37-1.73.52-3.75.84-5.63a35.06,35.06,0,0,0,4.93,1.36c3.57.48,7.26,1.4,10.71.87,3.78-.57,4.09.91,4.4,3.87.94,8.92-1.89,16-9.56,20.9Z" transform="translate(-164 -289.89)"/></svg>