<svg id="Calque_1_Luminosité_Contraste_1_Image" data-name="Calque 1 + Luminosité/Contraste 1 Image" xmlns="http://www.w3.org/2000/svg" viewBox="0 0 267.57 249.86"><defs><style>.cls-1{fill:#65ab47;}</style></defs><title>autraliamap</title><path class="cls-1" d="M165.55,208.6c-1.85-1.95-1.85-1.95,2.11-5.22-1.7-1.39-2.45-2.72.22-3.9,2.1-.92,2.05-2.68,1.54-5-3.08,2.4-6.88,3.56-7.52,8.06-.09.68-1.68,1.86-2.05,1.69-1.81-.86-4.33-1.63-3.89-4.25.69-4.14-2.17-6.24-4.39-8.8a11.38,11.38,0,0,1-2.37-3.1c-1-2.66-2.37-4.22-5.56-4.45a26,26,0,0,1-7.89-2.33c-7.3-3-14.35-1.56-21.1,1.39-4.06,1.79-8,3.4-12.48,3.63a14.62,14.62,0,0,0-6,2.26c-3.81,2.19-8.11,3.81-9.49,8.87-.31,1.16-2.54,2.34-4,2.53-4.93.66-9.92.78-14.87,1.29a11.92,11.92,0,0,0-7.64,4c-4.56,4.73-9.76,9-17.18,7.33a30.78,30.78,0,0,1-5.24-2c-.81-.34-1.52-1.2-2.31-1.26-3.64-.3-3.95-2.71-3.79-5.53a10.3,10.3,0,0,1,2-6.28c1.29-1.74-.14-5.84-1-8.71-.56-1.91-2.43-3.41-3.34-5.27-1.22-2.48-2.1-5.12-3.07-7.72-.34-.92-.27-2-.77-2.85-3.44-5.55-6.36-11.59-10.67-16.36-3.82-4.22-3.67-8.47-3.28-13.23.06-.75.33-1.81,0-2.21-2-2.1-1.5-4.63-1.51-7.08,0-4.8,0-9.6,0-14.4a7.45,7.45,0,0,1,2.63-6l.95,2.76c4.38-4.23,8.76-8.57,13.31-12.75a11.17,11.17,0,0,1,3.9-1.8c2.58-.88,5.27-1.48,7.8-2.49,4.21-1.68,8.25-3.86,12.52-5.34,5-1.74,8.92-4.3,10.72-9.55.85-2.46,3.18-4.88,3-7.14-.5-5.3,2.4-8.3,5.87-11.83l2.53,4.14.75-.09a13.83,13.83,0,0,0,0-2.23c-.45-2.95.78-4.42,3.53-3.66,2.48.69,2.54-.43,2.79-2.34a12.84,12.84,0,0,1,1.88-4.71A58,58,0,0,1,86,51.37a11.24,11.24,0,0,1,1.58-1.72c1.38-1.15,2.87-2.19,4.22-3.37,2.55-2.23,9.84-1.93,12,.83,2.47,3.16,5.78,4,9.44,4.32,1.85.14,3.19-.17,2.49-2.65a4.15,4.15,0,0,1,.48-2.81A69,69,0,0,1,121.52,37a33.23,33.23,0,0,1,6.2-5.93c.61-.49,2,0,3.07.08s2,.19,4,.39c-2.5-2.52-2.11-3.87-.09-4.32l-1.51-3c1.17-.22,2.41-.79,3.51-.59a31.49,31.49,0,0,1,5,1.8c2.86,1.08,5.72,2.17,8.58,3.22.46.17,1.05.08,1.45.32,4.7,2.79,9.7.72,14.51.67,2.56,0,3.67,1.1,4.16,2.83,1.16,4.08-1.22,9.17-5,11.66a3.46,3.46,0,0,0-1.38,1.66c-.34,1.12-.2,2.39-.58,3.48a23.8,23.8,0,0,1-2.1,3.57c2.87,1.83,5.68,3.64,8.51,5.41,2,1.21,3.9,2.4,5.88,3.55,2.58,1.48,5.21,2.88,7.77,4.39.9.54,1.64,1.36,2.52,2,2.18,1.45,4.24,3.23,6.63,4.16s3.88-.81,5-2.81a41.54,41.54,0,0,0,5.39-20.3c.05-7.06.45-13.93,3.82-20.34.91-1.72,1.13-3.86,2.21-5.43,1.42-2,2.91-1.65,3.75.66,1.71,4.67,3.64,9.27,5.05,14,.83,2.81.81,5.88,1.22,8.83.45,3.32.74,3.46,3.85,2.55.67-.2,1.88-.26,2.16.12,2.33,3.16,6.23,5.39,5.51,10.36-.5,3.5.67,6.77,2.5,9.94a15.54,15.54,0,0,1,2,7.36c.07,5.4,1.24,9.35,6.89,11.9a25.48,25.48,0,0,1,10.06,8.62c2.31,3.41,2.81,8,4.06,12.15a18.46,18.46,0,0,1,.4,2.3c1.24.32,2.35.65,3.47.87,4.53.89,4.74,4.35,4.51,7.86-.18,2.68,1.21,4.2,3.06,5.74,4,3.33,6,8,7.87,12.68,3.72,9.3,1.12,19.09,1.72,28.65a3.65,3.65,0,0,1-.33,1.72c-2.19,4.88-4.69,9.64-6.57,14.63a33.26,33.26,0,0,1-9.9,13.85c-3.59,3.11-5.6,8.06-8.28,12.22-.53.82-.7,2-1.39,2.58-3.84,3.36-5.27,7.87-6.38,12.58-1.18,5-2.61,5.9-7.78,5.14-4.82-.7-8.71,1.43-12.28,4.37-4.17,3.44-4.17,3.44-8.28-.07-3.19-2.74-5.52-3-9.25-.9-1.87,1.08-3.26,1-5.15-.19a31.82,31.82,0,0,0-7.64-3.22c-7.45-2.24-10.76-6.24-11-13.94a7.66,7.66,0,0,0-4.07-6.55c-.84-.49-2.36,0-3.53.26-2.78.63-5.5,1.55-8.31,2a3.49,3.49,0,0,1-2.59-1.45C164.16,210.76,165.09,209.54,165.55,208.6Z" transform="translate(-9.93 -22.1)"/><path class="cls-1" d="M229.37,253.8c.66,4.8-1,9.8-3.85,13.87-1.6,2.32-5.49,3.62-8.56,4.21s-4.87-2.17-5.44-4.93c-1.32-6.3-2.51-12.64-3.36-19-.4-3,2.18-4.34,4.76-2.25,3.72,3,7.61,2.79,11.79,1.93,4.58-.94,4.65-.86,4.66,3.89Z" transform="translate(-9.93 -22.1)"/></svg>