<?xml version="1.0"?>
<svg xmlns="http://www.w3.org/2000/svg" xmlns:xlink="http://www.w3.org/1999/xlink" version="1.1" id="Layer_1" x="0px" y="0px" viewBox="0 0 512 512" style="enable-background:new 0 0 512 512;" xml:space="preserve" width="512px" height="512px" class=""><g><path style="fill:#F9F9F9" d="M256,508C117.048,508,4,394.952,4,256S117.048,4,256,4s252,113.048,252,252S394.952,508,256,508z" data-original="#FFFFFF" class="" data-old_color="#FFFFFF"/><path style="fill:#FF0000" d="M256,8c136.744,0,248,111.256,248,248S392.744,504,256,504S8,392.744,8,256S119.256,8,256,8 M256,0  C114.616,0,0,114.616,0,256s114.616,256,256,256s256-114.616,256-256S397.384,0,256,0L256,0z" data-original="#AAC1CE" class="active-path" data-old_color="#AAC1CE"/><circle style="fill:#FF0000" cx="256" cy="256" r="223.104" data-original="#32BEA6" class="" data-old_color="#32BEA6"/><path style="fill:#F9F9F9" d="M240.728,382.096v-32.232c-20.936-0.664-41.864-6.64-53.832-14.616l8.968-31.232  c12.96,7.64,31.568,14.616,51.832,14.616c20.936,0,35.216-10.296,35.216-26.248c0-14.952-11.624-24.584-36.208-33.552  c-34.888-12.632-57.488-28.576-57.488-59.48c0-28.576,19.928-50.504,53.496-56.488v-32.56h27.248v30.904  c20.928,0.664,35.216,5.648,45.848,10.968l-8.968,30.568c-7.976-3.656-22.592-11.296-45.192-11.296  c-23.256,0-31.56,11.96-31.56,23.256c0,13.624,11.96,21.264,40.2,32.56c37.216,13.96,53.832,31.896,53.832,61.472  c0,28.248-19.6,53.168-56.152,59.152v34.224h-27.24V382.096z" data-original="#FFFFFF" class="" data-old_color="#FFFFFF"/></g> </svg>
