<svg id="Layer_1" xmlns="http://www.w3.org/2000/svg" viewBox="0 0 485.9 118"><style>.st0{fill:#f05123}</style><path d="M190.2 43.7c-.5-.7-1.2-1.3-1.8-1.7-.7-.5-1.4-.9-2.1-1.1-.7-.3-1.5-.5-2.3-.6-.8-.1-1.5-.2-2.2-.2-2 0-3.8.3-5.4.9-1.7.6-3.1 1.5-4.3 2.6-1.2 1.1-2.1 2.5-2.8 4.2-.7 1.6-1 3.5-1 5.5s.3 3.8 1 5.5c.7 1.6 1.6 3 2.8 4.2 1.2 1.1 2.6 2 4.3 2.6 1.7.6 3.5.9 5.4.9 1.7 0 3.4-.4 5-1.1 1.6-.7 3-1.8 4-3.3l-4.6-3.4c-.6.9-1.3 1.5-2.2 2-.9.5-1.9.7-3 .7-1 0-1.9-.2-2.8-.6-.9-.4-1.6-1-2.3-1.7-.6-.7-1.1-1.6-1.5-2.6-.4-1-.6-2.1-.6-3.2 0-1.2.2-2.2.6-3.2.4-1 .9-1.9 1.5-2.6.7-.7 1.4-1.3 2.3-1.7.9-.4 1.9-.6 2.9-.6s2 .2 2.8.5c.8.4 1.5.9 2 1.5l4.3-3.5zm3.8 22.1h5.5V56H210v-5.1h-10.5v-5.1h11.3v-5.1H194v25.1zm37.1-23.2c-1.1-.9-2.3-1.6-3.6-2-1.3-.4-2.7-.6-4.1-.6-1.2 0-2.4.2-3.6.5-1.2.3-2.2.9-3.1 1.5-.9.7-1.6 1.5-2.1 2.6-.5 1-.8 2.2-.8 3.6s.3 2.5.9 3.4c.6.9 1.3 1.5 2.2 2.1.9.5 1.8.9 2.8 1.2 1 .3 2 .6 2.8.9.9.3 1.6.7 2.2 1.1.6.4.9 1 .9 1.8 0 .5-.1.8-.3 1.2-.2.3-.5.6-.9.8-.4.2-.8.4-1.2.5-.5.1-.9.2-1.4.2-.9 0-1.8-.2-2.7-.6-.9-.4-1.6-1-2.1-1.8l-3.9 4.3c1.2 1.1 2.5 1.9 3.9 2.4s2.9.7 4.5.7c1.3 0 2.5-.2 3.7-.5 1.2-.3 2.2-.8 3.1-1.5.9-.7 1.6-1.6 2.1-2.6s.8-2.3.8-3.7c0-1.5-.3-2.6-.9-3.5-.6-.9-1.3-1.6-2.1-2.1-.9-.5-1.8-.9-2.8-1.2s-1.9-.6-2.8-.9c-.9-.3-1.6-.6-2.1-1-.6-.4-.9-1-.9-1.7 0-.5.1-.9.4-1.2.2-.3.5-.6.9-.8.4-.2.8-.3 1.2-.4.4-.1.8-.1 1.2-.1.7 0 1.4.1 2.2.4.8.3 1.4.7 1.8 1.3l3.8-4.3zM246 65.8h5.5V56H262v-5.1h-10.5v-5.1h11.3v-5.1H246v25.1zm20.5-7.1c.7 1.6 1.6 3 2.8 4.2 1.2 1.1 2.6 2 4.3 2.6 1.7.6 3.5.9 5.4.9 2 0 3.8-.3 5.4-.9 1.7-.6 3.1-1.5 4.3-2.6 1.2-1.1 2.1-2.5 2.8-4.2.7-1.6 1-3.5 1-5.5s-.3-3.8-1-5.5c-.7-1.6-1.6-3-2.8-4.2-1.2-1.1-2.6-2-4.3-2.6-1.7-.6-3.5-.9-5.4-.9-2 0-3.8.3-5.4.9-1.7.6-3.1 1.5-4.3 2.6-1.2 1.1-2.1 2.5-2.8 4.2-.7 1.6-1 3.5-1 5.5s.3 3.8 1 5.5zm5.3-8.7c.4-1 .9-1.9 1.6-2.6.7-.7 1.5-1.3 2.5-1.7 1-.4 2-.6 3.2-.6 1.2 0 2.3.2 3.2.6 1 .4 1.8 1 2.5 1.7s1.2 1.6 1.6 2.6c.4 1 .6 2.1.6 3.2 0 1.2-.2 2.3-.6 3.2-.4 1-.9 1.8-1.6 2.6-.7.7-1.5 1.3-2.5 1.7-1 .4-2 .6-3.2.6-1.2 0-2.3-.2-3.2-.6-1-.4-1.8-1-2.5-1.7s-1.2-1.6-1.6-2.6c-.4-1-.6-2.1-.6-3.2 0-1.2.2-2.2.6-3.2zm45.8-9.4H312v15.2c0 .8-.1 1.5-.4 2.2-.2.7-.6 1.2-1 1.7-.5.5-1 .9-1.6 1.1-.6.3-1.3.4-2 .4s-1.4-.1-2-.4c-.6-.3-1.2-.7-1.6-1.1-.5-.5-.8-1.1-1-1.7-.2-.7-.4-1.4-.4-2.2V40.6h-5.5V56c0 1.5.2 2.9.7 4.1.4 1.3 1.1 2.3 2 3.3s2 1.6 3.3 2.2c1.3.5 2.9.8 4.6.8 1.7 0 3.3-.3 4.6-.8 1.3-.5 2.4-1.2 3.3-2.2s1.6-2 2-3.3c.4-1.3.7-2.6.7-4.1V40.6h-.1zm5.1 25.2h5.5V47.9h.1l11 17.9h7.2V40.6H341v17.5h-.1l-10.7-17.5h-7.5v25.2zm28.9 0h9.1c1.9 0 3.7-.3 5.4-.8 1.7-.5 3.2-1.3 4.5-2.4 1.3-1.1 2.3-2.4 3.1-3.9.8-1.6 1.2-3.3 1.2-5.4 0-2.3-.4-4.2-1.2-5.9-.8-1.6-1.9-2.9-3.2-3.9-1.3-1-2.9-1.7-4.7-2.2-1.8-.4-3.7-.7-5.7-.7h-8.3v25.2h-.2zm5.6-20.1h3.3c1.2 0 2.3.1 3.3.4 1.1.3 2 .7 2.8 1.3.8.6 1.4 1.3 1.9 2.3.5.9.7 2 .7 3.2 0 1.4-.2 2.6-.7 3.6-.5 1-1.1 1.8-1.9 2.4-.8.6-1.8 1-2.9 1.3-1.1.3-2.3.4-3.6.4h-2.9V45.7zM376 65.8h6.1l2.1-5.3h9.8l2.2 5.3h6.3l-10.9-25.1H387l-11 25.1zm16.1-10H386l3.1-7.8 3 7.8zm14.4 10h5.5V45.5h7.2v-4.9h-19.9v4.9h7.2v20.3zm15.4 0h5.5V40.6h-5.5v25.2zm10.3-7.1c.7 1.6 1.6 3 2.8 4.2 1.2 1.1 2.6 2 4.3 2.6 1.7.6 3.5.9 5.4.9 2 0 3.8-.3 5.4-.9 1.7-.6 3.1-1.5 4.3-2.6 1.2-1.1 2.1-2.5 2.8-4.2.7-1.6 1-3.5 1-5.5s-.3-3.8-1-5.5c-.7-1.6-1.6-3-2.8-4.2-1.2-1.1-2.6-2-4.3-2.6-1.7-.6-3.5-.9-5.4-.9-2 0-3.8.3-5.4.9-1.7.6-3.1 1.5-4.3 2.6-1.2 1.1-2.1 2.5-2.8 4.2-.7 1.6-1 3.5-1 5.5s.3 3.8 1 5.5zm5.3-8.7c.4-1 .9-1.9 1.6-2.6.7-.7 1.5-1.3 2.5-1.7 1-.4 2-.6 3.2-.6 1.2 0 2.3.2 3.2.6 1 .4 1.8 1 2.5 1.7s1.2 1.6 1.6 2.6c.4 1 .6 2.1.6 3.2 0 1.2-.2 2.3-.6 3.2-.4 1-.9 1.8-1.6 2.6-.7.7-1.5 1.3-2.5 1.7-1 .4-2 .6-3.2.6-1.2 0-2.3-.2-3.2-.6-1-.4-1.8-1-2.5-1.7s-1.2-1.6-1.6-2.6c-.4-1-.6-2.1-.6-3.2 0-1.2.2-2.2.6-3.2zm24.6 15.8h5.5V47.9h.1l11 17.9h7.2V40.6h-5.5v17.5h-.1l-10.7-17.5h-7.5v25.2z"/><path class="st0" d="M87.2 111.7c29.1-12.3 41.4-27.3 41.4-27.3 16.6-19.3 13.5-44.8 13.5-44.8-.3 17.8-16.3 38.6-16.3 38.6-20.2 25.8-40.2 27-40.2 27 28.7-6.5 42.9-40.1 42.9-40.1 12.9-24.5 1.2-44.8 1.2-44.8 4.6 20.3-4.6 42.8-4.6 42.8-9 20.1-24.9 29.5-34.4 33.5-3.1 1.7-5.9 2.7-7.9 2.7 0 0 3.2-.7 7.9-2.7 12.1-6.7 29.6-25.1 32.5-44.3 3.7-24-11.7-44.1-11.7-44.1 10.7 23 5.8 42.9 5.8 42.9-4.2 35.1-37 43.2-37 43.2 25.5-10.5 31.6-43.6 31.6-43.6 7.4-28.5-15.3-45.1-15.3-45.1 17.2 24 10.7 44.3 10.7 44.3-4.1 25-26.6 38.1-26.6 38.1 1.8-1.2 2-10.4 2-10.4 2.5 3.1.1 5.4.1 5.4 5.7-2.9 1.2-13.3 1.2-13.3 2 4.5 7.6 5.4 7.6 5.4-7.5-3.2-7.6-14.6-7.6-14.6 7 2.6 10.9.8 10.9.8-5 .2-9-3.9-9-3.9 3.1 1.6 5.4.8 5.4.8-2.1.2-5.8-2.9-5.8-2.9 5.4 2.7 8.2 1.2 8.2 1.2-5.8-.1-8.7-5.4-8.7-5.4-6.1-8.4-10.3-7.9-10.3-7.9-8.9-6.8-18.3-2.3-18.3-2.3 10.7 1.6 12.7 7 12.7 7-4-2.1-8.7-1.3-8.7-1.3 20.9 11.1.5 22.9.5 22.9 2.1.9 3.5-.3 3.5-.3.5 4.9-8.9 13.9-8.9 13.9 14.1-7 21.6-25.7 21.6-25.7 1.2 18-31.5 46.8-31.5 46.8-4.3 4.9-7.3 9.4-9.5 13.6h39.2c17.8-1.6 35-8.3 35-8.3 31-12.5 32.1-47.6 32.1-47.6-6.9 41.8-55.2 49.8-55.2 49.8z"/><path class="st0" d="M73.4 2s-27 11.5-32.2 42.3c0 0-4.3 26 10.7 41.3 0 0-20.9 16-22.7 21.5 0 0-40.8-22.3-26.1-66.9 0 0-4.6 27.3 8 41.6 0 0 12.6 17.5 20.7 19.8 0 0-18.3-14.3-22-29.3 0 0-8.9-31.1 5.2-53.6 0 0-8.6 34.3.9 52.3 0 0 8.5 19.8 20.6 25.3 0 0-15.4-10-20.3-35.3 0 0-6.7-35.3 18.1-56.6 0 0-19.6 33.4-12.6 54.8 0 0 5.5 26.8 19.3 32.8 0 0-16.9-16.5-16.3-39.1 0 0-1.4-32.8 30.4-53.1 0 0-26.3 21.8-24.8 51.3 0 0 0 27.3 15.9 37.1 0 0-15.2-16.5-9.7-42.8.2.2.2-29.4 36.9-43.4zm107.4 80c-.6-.5-1.2-.9-1.9-1.1-.7-.2-1.5-.3-2.2-.3-.7 0-1.3.1-1.9.3-.6.2-1.2.5-1.7.8-.5.4-.9.8-1.2 1.4-.3.6-.4 1.2-.4 1.9 0 .8.2 1.4.5 1.8.3.5.7.8 1.2 1.1.5.3 1 .5 1.5.7.6.2 1.1.3 1.5.5.5.2.9.4 1.2.6.3.2.5.6.5 1 0 .2-.1.5-.2.6-.1.2-.3.3-.5.4-.2.1-.4.2-.7.3-.3.1-.5.1-.7.1-.5 0-1-.1-1.5-.3-.5-.2-.9-.5-1.2-1l-2.1 2.3c.7.6 1.4 1 2.1 1.3.8.3 1.6.4 2.5.4.7 0 1.4-.1 2-.3.6-.2 1.2-.5 1.7-.8.5-.4.9-.8 1.1-1.4.3-.6.4-1.2.4-2s-.2-1.4-.5-1.9-.7-.9-1.2-1.1c-.5-.3-1-.5-1.5-.7s-1-.3-1.5-.5-.9-.3-1.2-.6c-.3-.2-.5-.5-.5-.9 0-.3.1-.5.2-.7.1-.2.3-.3.5-.4.2-.1.4-.2.7-.2.2-.1.5-.1.7-.1.4 0 .8.1 1.2.2.4.1.7.4 1 .7l2.1-2.1zm11.1 3.1H189v4.7c0 .3 0 .6-.1.9 0 .3-.1.5-.2.8-.1.2-.3.4-.5.5-.2.1-.5.2-.9.2s-.7-.1-.9-.2c-.2-.2-.3-.4-.4-.6-.1-.2-.2-.5-.2-.8v-5.4h-2.9v5.2c0 .6 0 1.2.1 1.8.1.5.3 1 .5 1.4.3.4.6.7 1.1.9.5.2 1 .3 1.8.3.3 0 .7 0 1-.1.3-.1.6-.2.8-.3.2-.1.4-.3.6-.5.2-.2.3-.4.4-.5v1.3h2.8v-9.6h-.1zm2.5 13.8h2.9v-5.4c.3.4.8.8 1.3 1 .5.2 1.1.3 1.7.3.7 0 1.3-.1 1.8-.4.5-.3 1-.6 1.3-1.1.4-.5.6-1 .8-1.6.2-.6.3-1.2.3-1.9s-.1-1.4-.3-1.9c-.2-.6-.5-1.1-.9-1.5-.4-.4-.9-.8-1.5-1-.6-.2-1.2-.4-1.9-.4-.3 0-.6 0-.9.1-.3.1-.6.2-.8.3-.3.1-.5.3-.7.5l-.5.5v-1.2h-2.7v13.7h.1zm3.3-10.8c.4-.4 1-.7 1.7-.7s1.3.2 1.7.7c.4.4.6 1 .6 1.7s-.2 1.3-.6 1.7c-.4.4-1 .7-1.7.7s-1.3-.2-1.7-.7c-.4-.4-.6-1-.6-1.7s.2-1.3.6-1.7zm9 10.8h2.9v-5.4c.3.4.8.8 1.3 1 .5.2 1.1.3 1.7.3.7 0 1.3-.1 1.8-.4.5-.3 1-.6 1.3-1.1.4-.5.6-1 .8-1.6.2-.6.3-1.2.3-1.9s-.1-1.4-.3-1.9c-.2-.6-.5-1.1-.9-1.5-.4-.4-.9-.8-1.5-1-.6-.2-1.2-.4-1.9-.4-.3 0-.6 0-.9.1-.3.1-.6.2-.8.3-.3.1-.5.3-.7.5l-.5.5v-1.2h-2.7v13.7h.1zm3.3-10.8c.4-.4 1-.7 1.7-.7s1.3.2 1.7.7c.4.4.6 1 .6 1.7s-.2 1.3-.6 1.7c-.4.4-1 .7-1.7.7s-1.3-.2-1.7-.7c-.4-.4-.6-1-.6-1.7s.2-1.3.6-1.7zm8.8 3.7c.3.6.6 1.1 1.1 1.5.5.4 1 .8 1.7 1 .6.2 1.3.3 2 .3s1.4-.1 2-.3c.6-.2 1.2-.6 1.7-1s.8-.9 1.1-1.5c.3-.6.4-1.3.4-2s-.1-1.4-.4-2c-.3-.6-.6-1.1-1.1-1.5-.5-.4-1-.8-1.7-1-.6-.2-1.3-.3-2-.3s-1.4.1-2 .3c-.6.2-1.2.6-1.7 1s-.8.9-1.1 1.5c-.3.6-.4 1.3-.4 2 0 .8.2 1.4.4 2zm3.1-3.7c.4-.4 1-.7 1.7-.7s1.3.2 1.7.7c.4.4.6 1 .6 1.7s-.2 1.3-.6 1.7c-.4.4-1 .7-1.7.7s-1.3-.2-1.7-.7c-.4-.4-.6-1-.6-1.7s.2-1.3.6-1.7zm8.8 6.4h2.9v-3.9c0-.5 0-.9.1-1.3s.2-.7.3-1c.2-.3.4-.5.7-.6.3-.2.8-.2 1.3-.2h.6c.2 0 .4.1.6.1V85c-.1 0-.3-.1-.5-.1h-.5c-.6 0-1.2.1-1.6.4s-.8.7-1.1 1.3v-1.5h-2.9v9.4h.1zm14.4-9.4h-2.5v-2.8h-2.9v2.8h-1.8v2.3h1.8v4.4c0 .5.1.9.3 1.3.2.4.4.7.7.9.3.2.7.4 1.1.5.4.1.9.2 1.3.2.3 0 .7 0 1-.1.3 0 .7-.1 1-.2V92c-.1.1-.3.2-.6.2h-.6c-.3 0-.6 0-.7-.1-.2-.1-.3-.2-.4-.4-.1-.2-.1-.3-.2-.5v-3.8h2.5v-2.3zm1.7 9.4h2.9v-9.3h-2.9v9.3zm.2-11.1c.3.3.7.5 1.2.5s.9-.2 1.2-.5.5-.7.5-1.2-.2-.9-.5-1.2-.7-.5-1.2-.5-.9.2-1.2.5-.5.7-.5 1.2.2.9.5 1.2zm4.9 11.1h2.9v-4.7c0-.3 0-.6.1-.9 0-.3.1-.5.2-.8.1-.2.3-.4.5-.5.2-.1.5-.2.9-.2s.7.1.9.2c.2.2.3.4.4.6.1.2.2.5.2.8v5.4h2.9v-5.2c0-.6 0-1.2-.1-1.8-.1-.5-.3-1-.5-1.4-.3-.4-.6-.7-1-.9-.4-.2-1-.3-1.8-.3-.3 0-.7 0-1 .1-.3.1-.6.2-.8.3-.2.1-.4.3-.6.5-.2.2-.3.4-.4.5v-1.3h-2.8v9.6zm21.1-9.4h-2.7v1.2c-.1-.2-.3-.3-.5-.5s-.4-.3-.7-.5c-.3-.1-.6-.3-.9-.3-.3-.1-.7-.1-1.1-.1-.7 0-1.3.1-1.8.4-.5.3-1 .6-1.3 1.1-.4.4-.6 1-.8 1.6-.2.6-.3 1.2-.3 1.8 0 .7.1 1.4.3 1.9.2.6.5 1.1.9 1.5.4.4.9.8 1.5 1 .6.2 1.2.4 1.9.4.4 0 .9-.1 1.4-.3.5-.2.9-.5 1.2-1v.9c0 .7-.2 1.2-.6 1.6-.4.4-1.1.6-2 .6-.6 0-1.1-.1-1.6-.3-.5-.2-1-.5-1.4-.9l-1.6 2.4c.7.5 1.4.9 2.2 1.1.8.2 1.6.3 2.5.3 1.8 0 3.2-.5 4.1-1.4.9-.9 1.3-2.3 1.3-4v-8.5zm-7.1 3.8c.1-.3.3-.5.5-.7s.5-.4.7-.5c.3-.1.6-.2.9-.2.3 0 .6.1.9.2.3.1.5.3.7.5.2.2.4.5.5.7.1.3.2.6.2.9 0 .3-.1.6-.2.9-.1.3-.3.5-.5.7-.2.2-.5.4-.7.5-.3.1-.6.2-.9.2-.3 0-.6-.1-.9-.2-.3-.1-.5-.3-.7-.5s-.4-.5-.5-.7c-.1-.3-.2-.6-.2-.9 0-.3.1-.6.2-.9zm19.9 5.6h2.4l5.6-13.6h-3.2l-3.4 8.9-3.4-8.9h-3.4l5.4 13.6zm8.3-2.7c.3.6.6 1.1 1.1 1.5.5.4 1 .8 1.7 1 .6.2 1.3.3 2 .3s1.4-.1 2-.3c.6-.2 1.2-.6 1.7-1s.8-.9 1.1-1.5c.3-.6.4-1.3.4-2s-.1-1.4-.4-2c-.3-.6-.6-1.1-1.1-1.5-.5-.4-1-.8-1.7-1-.6-.2-1.3-.3-2-.3s-1.4.1-2 .3c-.6.2-1.2.6-1.7 1s-.8.9-1.1 1.5c-.3.6-.4 1.3-.4 2 0 .8.1 1.4.4 2zm3.1-3.7c.4-.4 1-.7 1.7-.7s1.3.2 1.7.7c.4.4.6 1 .6 1.7s-.2 1.3-.6 1.7c-.4.4-1 .7-1.7.7s-1.3-.2-1.7-.7c-.4-.4-.6-1-.6-1.7s.2-1.3.6-1.7zm8.8 6.4h2.9V80H306v14.5zm14.2-9.4h-2.9v4.7c0 .3 0 .6-.1.9 0 .3-.1.5-.2.8-.1.2-.3.4-.5.5-.2.1-.5.2-.9.2s-.7-.1-.9-.2c-.2-.2-.3-.4-.4-.6-.1-.2-.2-.5-.2-.8v-5.4h-2.9v5.2c0 .6 0 1.2.1 1.8.1.5.3 1 .5 1.4.3.4.6.7 1.1.9.5.2 1 .3 1.8.3.3 0 .7 0 1-.1.3-.1.6-.2.8-.3.2-.1.4-.3.6-.5.2-.2.3-.4.4-.5v1.3h2.8v-9.6h-.1zm2.2 9.4h2.9v-4.7c0-.3 0-.6.1-.9 0-.3.1-.5.2-.8.1-.2.3-.4.5-.5.2-.1.5-.2.9-.2s.7.1.9.2c.2.2.3.4.4.6.1.2.2.5.2.8v5.4h2.9v-5.2c0-.6 0-1.2-.1-1.8-.1-.5-.3-1-.5-1.4-.3-.4-.6-.7-1-.9-.4-.2-1-.3-1.8-.3-.3 0-.7 0-1 .1-.3.1-.6.2-.8.3-.2.1-.4.3-.6.5-.2.2-.3.4-.4.5v-1.3h-2.8v9.6zm17.6-9.4h-2.5v-2.8h-2.9v2.8h-1.8v2.3h1.8v4.4c0 .5.1.9.3 1.3.2.4.4.7.7.9.3.2.7.4 1.1.5.4.1.9.2 1.3.2.3 0 .7 0 1-.1.3 0 .7-.1 1-.2V92c-.1.1-.3.2-.6.2h-.6c-.3 0-.6 0-.7-.1-.2-.1-.3-.2-.4-.4-.1-.2-.1-.3-.2-.5v-3.8h2.5v-2.3zm8.5 6.3c-.2.3-.5.6-.9.8-.3.2-.7.3-1.2.3-.6 0-1-.2-1.4-.5-.4-.3-.6-.8-.8-1.3h6.7v-.9c0-.7-.1-1.4-.3-2-.2-.6-.5-1.1-.9-1.5-.4-.4-.8-.8-1.4-1-.5-.2-1.2-.3-1.8-.3-.7 0-1.4.1-2 .3-.6.2-1.2.6-1.7 1s-.8.9-1.1 1.5c-.3.6-.4 1.3-.4 2s.1 1.4.4 2c.3.6.6 1.1 1.1 1.5.5.4 1 .8 1.7 1 .6.2 1.3.3 2 .3.8 0 1.5-.2 2.2-.5.7-.3 1.3-.8 1.8-1.4l-2-1.3zm-4.3-2.6c0-.2.1-.5.2-.7.1-.2.2-.4.4-.6.2-.2.4-.3.6-.4.2-.1.5-.2.8-.2.5 0 1 .2 1.3.5.3.3.5.8.5 1.3h-3.8v.1zm15.5 2.6c-.2.3-.5.6-.9.8-.3.2-.7.3-1.2.3-.6 0-1-.2-1.4-.5-.4-.3-.6-.8-.8-1.3h6.7v-.9c0-.7-.1-1.4-.3-2-.2-.6-.5-1.1-.9-1.5-.4-.4-.8-.8-1.4-1-.5-.2-1.2-.3-1.8-.3-.7 0-1.4.1-2 .3-.6.2-1.2.6-1.7 1s-.8.9-1.1 1.5c-.3.6-.4 1.3-.4 2s.1 1.4.4 2c.3.6.6 1.1 1.1 1.5.5.4 1 .8 1.7 1 .6.2 1.3.3 2 .3.8 0 1.5-.2 2.2-.5.7-.3 1.3-.8 1.8-1.4l-2-1.3zm-4.2-2.6c0-.2.1-.5.2-.7s.2-.4.4-.6c.2-.2.4-.3.6-.4.2-.1.5-.2.8-.2.5 0 1 .2 1.3.5.3.3.5.8.5 1.3h-3.8v.1zm8.6 5.7h2.9v-3.9c0-.5 0-.9.1-1.3s.2-.7.3-1c.2-.3.4-.5.7-.6.3-.2.8-.2 1.3-.2h.6c.2 0 .4.1.6.1V85c-.1 0-.3-.1-.5-.1h-.5c-.6 0-1.2.1-1.6.4s-.8.7-1.1 1.3v-1.5H364v9.4h.1zm14.4 0h3v-5.3h5.7v-2.8h-5.7v-2.8h6.1v-2.8h-9.1v13.7zm11.2 0h2.9v-9.3h-2.9v9.3zm.2-11.1c.3.3.7.5 1.2.5s.9-.2 1.2-.5.5-.7.5-1.2-.2-.9-.5-1.2-.7-.5-1.2-.5-.9.2-1.2.5-.5.7-.5 1.2.2.9.5 1.2zm4.9 11.1h2.9v-3.9c0-.5 0-.9.1-1.3s.2-.7.3-1c.2-.3.4-.5.7-.6.3-.2.8-.2 1.3-.2h.6c.2 0 .4.1.6.1V85c-.1 0-.3-.1-.5-.1h-.5c-.6 0-1.2.1-1.6.4s-.8.7-1.1 1.3v-1.5h-2.9v9.4h.1zm14.5-3.1c-.2.3-.5.6-.9.8-.3.2-.7.3-1.2.3-.6 0-1-.2-1.4-.5-.4-.3-.6-.8-.8-1.3h6.7v-.9c0-.7-.1-1.4-.3-2-.2-.6-.5-1.1-.9-1.5-.4-.4-.8-.8-1.4-1-.5-.2-1.2-.3-1.8-.3-.7 0-1.4.1-2 .3-.6.2-1.2.6-1.7 1s-.8.9-1.1 1.5c-.3.6-.4 1.3-.4 2s.1 1.4.4 2c.3.6.6 1.1 1.1 1.5.5.4 1 .8 1.7 1 .6.2 1.3.3 2 .3.8 0 1.5-.2 2.2-.5.7-.3 1.3-.8 1.8-1.4l-2-1.3zm-4.2-2.6c0-.2.1-.5.2-.7s.2-.4.4-.6c.2-.2.4-.3.6-.4.2-.1.5-.2.8-.2.5 0 1 .2 1.3.5.3.3.5.8.5 1.3h-3.8v.1zm15.8 5.7h2.9v-9.3h-2.9v9.3zm.2-11.1c.3.3.7.5 1.2.5s.9-.2 1.2-.5c.3-.3.5-.7.5-1.2s-.2-.9-.5-1.2c-.3-.3-.7-.5-1.2-.5s-.9.2-1.2.5c-.3.3-.5.7-.5 1.2s.2.9.5 1.2zm-6.4 11.1h2.9v-7h2.1v-2.3h-2.1v-1.5c0-.6.1-1 .3-1.2.2-.2.6-.3 1-.3h.5c.1 0 .3.1.5.1l.1-2.4c-.3-.1-.5-.1-.8-.1h-.9c-.8 0-1.4.1-1.9.3-.5.2-.8.5-1.1.8-.3.3-.4.7-.5 1.2-.1.5-.1.9-.1 1.5v1.7h-1.9v2.3h1.9v6.9zm21.1-9.4h-2.7v1.2c-.1-.2-.3-.3-.5-.5s-.4-.3-.7-.5c-.3-.1-.6-.3-.9-.3-.3-.1-.7-.1-1.1-.1-.7 0-1.3.1-1.8.4-.5.3-1 .6-1.3 1.1-.4.4-.6 1-.8 1.6-.2.6-.3 1.2-.3 1.8 0 .7.1 1.4.3 1.9.2.6.5 1.1.9 1.5.4.4.9.8 1.5 1 .6.2 1.2.4 1.9.4.4 0 .9-.1 1.4-.3.5-.2.9-.5 1.2-1v.9c0 .7-.2 1.2-.6 1.6-.4.4-1.1.6-2 .6-.6 0-1.1-.1-1.6-.3-.5-.2-1-.5-1.4-.9l-1.6 2.4c.7.5 1.4.9 2.2 1.1.8.2 1.6.3 2.5.3 1.8 0 3.2-.5 4.1-1.4.9-.9 1.3-2.3 1.3-4v-8.5zm-7.1 3.8c.1-.3.3-.5.5-.7s.5-.4.7-.5c.3-.1.6-.2.9-.2.3 0 .6.1.9.2.3.1.5.3.7.5.2.2.4.5.5.7.1.3.2.6.2.9 0 .3-.1.6-.2.9-.1.3-.3.5-.5.7-.2.2-.5.4-.7.5-.3.1-.6.2-.9.2-.3 0-.6-.1-.9-.2-.3-.1-.5-.3-.7-.5s-.4-.5-.5-.7c-.1-.3-.2-.6-.2-.9.1-.3.1-.6.2-.9zm9.6-8.9v14.5h2.9v-4.7c0-.3 0-.6.1-.9 0-.3.1-.5.2-.8.1-.2.3-.4.5-.5.2-.1.5-.2.9-.2s.7.1.9.2c.2.2.3.4.4.6.1.2.2.5.2.8v5.4h2.9v-5.2c0-.6 0-1.2-.1-1.8-.1-.5-.3-1-.5-1.4-.3-.4-.6-.7-1-.9-.4-.2-1-.3-1.8-.3-.3 0-.7 0-1 .1-.3.1-.6.2-.8.3-.2.1-.4.3-.6.5-.2.2-.3.4-.3.5V80h-2.9zm17.6 5.1h-2.5v-2.8h-2.9v2.8h-1.8v2.3h1.8v4.4c0 .5.1.9.3 1.3.2.4.4.7.7.9.3.2.7.4 1.1.5.4.1.9.2 1.3.2.3 0 .7 0 1-.1.3 0 .7-.1 1-.2V92c-.1.1-.3.2-.6.2h-.6c-.3 0-.6 0-.7-.1-.2-.1-.3-.2-.4-.4-.1-.2-.1-.3-.2-.5v-3.8h2.5v-2.3zm8.5 6.3c-.2.3-.5.6-.9.8-.3.2-.7.3-1.2.3-.6 0-1-.2-1.4-.5-.4-.3-.6-.8-.8-1.3h6.7v-.9c0-.7-.1-1.4-.3-2-.2-.6-.5-1.1-.9-1.5-.4-.4-.8-.8-1.4-1-.5-.2-1.2-.3-1.8-.3-.7 0-1.4.1-2 .3-.6.2-1.2.6-1.7 1s-.8.9-1.1 1.5c-.3.6-.4 1.3-.4 2s.1 1.4.4 2c.3.6.6 1.1 1.1 1.5.5.4 1 .8 1.7 1 .6.2 1.3.3 2 .3.8 0 1.5-.2 2.2-.5.7-.3 1.3-.8 1.8-1.4l-2-1.3zm-4.2-2.6c0-.2.1-.5.2-.7s.2-.4.4-.6c.2-.2.4-.3.6-.4.2-.1.5-.2.8-.2.5 0 1 .2 1.3.5.3.3.5.8.5 1.3h-3.8v.1zm8.6 5.7h2.9v-3.9c0-.5 0-.9.1-1.3s.2-.7.3-1c.2-.3.4-.5.7-.6.3-.2.8-.2 1.3-.2h.6c.2 0 .4.1.6.1V85c-.1 0-.3-.1-.5-.1h-.5c-.6 0-1.2.1-1.6.4s-.8.7-1.1 1.3v-1.5h-2.9v9.4h.1zm15.1-8.4c-.4-.5-1-.8-1.6-1-.6-.2-1.3-.3-1.9-.3-.5 0-1 .1-1.4.2-.5.1-.9.3-1.3.6s-.7.6-.9 1c-.2.4-.3.9-.3 1.4 0 .6.1 1.1.4 1.4.2.4.5.6.9.8.4.2.8.3 1.2.4l1.2.3c.4.1.7.2.9.3.2.1.4.3.4.5 0 .3-.1.4-.4.5-.3.1-.6.1-.9.1-.4 0-.8-.1-1.1-.3-.3-.2-.6-.4-.9-.8l-1.8 1.9c.5.5 1 .8 1.7 1 .7.2 1.3.3 2 .3.5 0 1 0 1.5-.1s1-.3 1.4-.5c.4-.2.7-.6 1-.9.3-.4.4-.9.4-1.5s-.1-1.1-.4-1.4c-.2-.4-.5-.6-.9-.8-.4-.2-.8-.4-1.2-.5l-1.2-.3c-.4-.1-.7-.2-.9-.3-.2-.1-.4-.3-.4-.5 0-.3.1-.5.3-.6.2-.1.5-.2.7-.2.7 0 1.3.3 1.7.8l1.8-1.5z"/></svg>