<?xml version="1.0" encoding="UTF-8" standalone="no"?>
<!-- Created with Inkscape (http://www.inkscape.org/) -->

<svg
   xmlns:dc="http://purl.org/dc/elements/1.1/"
   xmlns:cc="http://creativecommons.org/ns#"
   xmlns:rdf="http://www.w3.org/1999/02/22-rdf-syntax-ns#"
   xmlns:svg="http://www.w3.org/2000/svg"
   xmlns="http://www.w3.org/2000/svg"
   xmlns:sodipodi="http://sodipodi.sourceforge.net/DTD/sodipodi-0.dtd"
   xmlns:inkscape="http://www.inkscape.org/namespaces/inkscape"
   width="210mm"
   height="297mm"
   viewBox="0 0 210 297"
   version="1.1"
   id="svg8"
   inkscape:version="0.92.4 (5da689c313, 2019-01-14)"
   sodipodi:docname="croix.svg">
  <defs
     id="defs2" />
  <sodipodi:namedview
     id="base"
     pagecolor="#ffffff"
     bordercolor="#666666"
     borderopacity="1.0"
     inkscape:pageopacity="0.0"
     inkscape:pageshadow="2"
     inkscape:zoom="0.49497475"
     inkscape:cx="-493.17092"
     inkscape:cy="425.49415"
     inkscape:document-units="mm"
     inkscape:current-layer="layer1"
     showgrid="false"
     inkscape:window-width="1920"
     inkscape:window-height="1017"
     inkscape:window-x="-8"
     inkscape:window-y="-8"
     inkscape:window-maximized="1" />
  <metadata
     id="metadata5">
    <rdf:RDF>
      <cc:Work
         rdf:about="">
        <dc:format>image/svg+xml</dc:format>
        <dc:type
           rdf:resource="http://purl.org/dc/dcmitype/StillImage" />
        <dc:title></dc:title>
      </cc:Work>
    </rdf:RDF>
  </metadata>
  <g
     inkscape:label="Calque 1"
     inkscape:groupmode="layer"
     id="layer1">
    <path
       style="fill:#558f43;fill-opacity:1;stroke-width:1.53803778"
       d="m 85.955361,180.2761 v -20.43518 l -16.799558,-0.0232 c -9.239758,-0.0127 -17.854415,-0.68349 -19.143683,-1.49054 -2.083666,-1.30432 -2.083666,-1.47251 0,-1.51372 2.083665,-0.0412 2.083665,-0.2094 0,-1.51372 -2.083666,-1.30431 -2.083666,-1.4725 0,-1.51371 2.083665,-0.0412 2.083665,-0.2094 0,-1.51372 -2.083666,-1.30432 -2.083666,-1.47251 0,-1.51372 2.083665,-0.0412 2.083665,-0.20939 0,-1.51371 -2.083666,-1.30432 -2.083666,-1.47251 0,-1.51372 2.083665,-0.0412 2.083665,-0.2094 0,-1.51372 -2.083666,-1.30431 -2.083666,-1.4725 0,-1.51371 2.083665,-0.0412 2.083665,-0.2094 0,-1.51372 -2.083666,-1.30432 -2.083666,-1.47251 0,-1.51372 2.083665,-0.0412 2.083665,-0.20939 0,-1.51371 -2.083666,-1.30432 -2.083666,-1.47251 0,-1.51372 2.083665,-0.0412 2.083665,-0.2094 0,-1.51372 -2.083666,-1.30431 -2.083666,-1.47251 0,-1.51371 2.083665,-0.0412 2.083665,-0.2094 0,-1.51372 -1.584175,-0.99165 3.862129,-1.47487 16.799558,-1.49054 l 19.143683,-0.0232 V 112.15885 91.723671 h 14.064749 14.06475 v 20.435179 20.43517 h 21.09712 21.09713 v 13.62345 13.62345 h -21.09713 -21.09712 v 20.43518 20.43517 H 100.02011 85.955361 Z"
       id="path1108"
       inkscape:connector-curvature="0" />
    <rect
       style="fill:#558f43;fill-opacity:1;stroke-width:0.43024027"
       id="rect1110"
       width="82.250511"
       height="27.167038"
       x="47.590775"
       y="132.59398" />
  </g>
</svg>
