<?xml version="1.0" encoding="utf-8"?>
<!-- Generator: Adobe Illustrator 21.1.0, SVG Export Plug-In . SVG Version: 6.00 Build 0)  -->
<svg version="1.1" id="Layer_1" xmlns="http://www.w3.org/2000/svg" xmlns:xlink="http://www.w3.org/1999/xlink" x="0px" y="0px"
	 viewBox="0 0 174.747 85.632" style="enable-background:new 0 0 174.747 85.632;" xml:space="preserve">
<style type="text/css">
	.st0{fill:none;stroke:#000101;stroke-width:0.751;}
	.st1{fill:#000101;}
	.st2{fill:#E41E25;}
</style>
<g>
	<g>
		<path class="st0" d="M174.371,42.817c0,23.436-19,42.44-42.44,42.44c-23.437,0-42.436-19.004-42.436-42.44
			c0-23.441,18.999-42.441,42.436-42.441C155.371,0.375,174.371,19.375,174.371,42.817z M157.998,42.361
			c0,14.396-11.676,26.073-26.068,26.073c-14.394,0-26.066-11.677-26.066-26.073c0-14.396,11.672-26.064,26.066-26.064
			C146.322,16.297,157.998,27.965,157.998,42.361z"/>
	</g>
	<path class="st1" d="M93.367,36.461l0.38-2.05l9.976-1.391l-0.338,1.837l-1.922,0.203l-0.654,3.549l1.727,0.875l-0.34,1.838
		L93.367,36.461z M95.278,35.74l-0.004,0.024l4.066,2.084l0.481-2.6L95.278,35.74z"/>
	<g>
		<path class="st1" d="M105.914,22.804c1.684,0.986,1.975,2.936,0.813,4.922c-1.162,1.983-3.007,2.682-4.687,1.696l-5.721-3.347
			l0.903-1.549l5.314,3.115c1.011,0.591,1.898,0.535,2.682-0.801c0.783-1.34,0.396-2.139-0.615-2.728l-5.317-3.114l0.909-1.545
			L105.914,22.804z"/>
		<path class="st1" d="M109.207,19.322c1.147,0.34,2.239,0.031,3.138-0.708c0.667-0.557,1.366-1.515,0.776-2.231
			c-0.48-0.581-1.153-0.303-2.316,0.277l-0.971,0.488c-1.391,0.699-2.781,1.119-3.904-0.243c-1.283-1.552-0.426-3.514,0.94-4.65
			c1.259-1.034,2.681-1.427,4.282-1.044l-0.424,1.815c-0.905-0.384-1.91-0.216-2.804,0.525c-0.794,0.655-1.144,1.447-0.713,1.966
			c0.503,0.614,1.312,0.188,2.29-0.307l1.057-0.546c1.289-0.664,2.684-1.067,3.842,0.333c1.488,1.805,0.31,3.82-1.209,5.079
			c-1.215,1.002-2.909,1.515-4.458,1.067L109.207,19.322z"/>
	</g>
	<polygon class="st1" points="117.388,8.041 114.962,8.996 114.35,7.444 120.868,4.879 121.478,6.428 119.055,7.386 121.96,14.739 
		120.293,15.395 	"/>
	<g>
		<path class="st1" d="M126.091,3.748l3.965-0.249c2.013-0.126,3.276,1.006,3.379,2.683c0.133,2.146-1.262,2.731-1.703,2.935
			l2.36,3.715l-2.07,0.129l-2.064-3.4l-1.704,0.109l0.222,3.512l-1.789,0.11L126.091,3.748z M128.155,8.087l1.948-0.118
			c0.906-0.062,1.529-0.636,1.471-1.536c-0.05-0.871-0.676-1.397-1.916-1.322l-1.68,0.108L128.155,8.087z"/>
	</g>
	<path class="st1" d="M141.238,4.585l2.004,0.559l0.51,10.071l-1.802-0.498l-0.034-1.935l-3.472-0.961l-1.026,1.641l-1.801-0.498
		L141.238,4.585z M141.786,6.553l-0.027-0.009l-2.43,3.876l2.544,0.704L141.786,6.553z"/>
	<polygon class="st1" points="150.852,8.33 152.355,9.303 148.07,15.941 151.31,18.033 150.407,19.433 145.661,16.369 	"/>
	
		<rect x="151.425" y="17.597" transform="matrix(0.7124 -0.7018 0.7018 0.7124 31.9493 114.9441)" class="st1" width="9.569" height="1.792"/>
	<path class="st1" d="M165.019,22.013l1.047,1.8l-6.682,7.557l-0.937-1.616l1.329-1.407l-1.811-3.119l-1.88,0.458l-0.94-1.617
		L165.019,22.013z M164.036,23.803l-0.01-0.022l-4.445,1.066l1.321,2.286L164.036,23.803z"/>
	<polygon class="st1" points="169.499,31.846 169.798,33.46 163.823,38.625 163.824,38.655 170.523,37.417 170.819,39.021 
		161.416,40.757 161.117,39.14 167.088,33.976 167.086,33.952 160.39,35.187 160.098,33.584 	"/>
	<g>
		<path class="st1" d="M102.767,48.604l1.22,3.775c0.62,1.92-0.163,3.422-1.761,3.941c-2.044,0.661-2.953-0.548-3.261-0.922
			l-3.014,3.203l-0.639-1.971l2.782-2.836l-0.524-1.625l-3.35,1.079l-0.551-1.7L102.767,48.604z M99.076,51.68l0.602,1.858
			c0.278,0.865,0.99,1.323,1.843,1.041c0.832-0.268,1.187-1.001,0.806-2.182l-0.518-1.603L99.076,51.68z"/>
	</g>
	<polygon class="st1" points="106.104,57.451 110.055,62.91 108.703,63.886 105.81,59.877 104.043,61.154 106.707,64.839 
		105.423,65.769 102.759,62.085 100.759,63.534 103.859,67.825 102.509,68.802 98.358,63.059 	"/>
	<g>
		<path class="st1" d="M111.711,64.631l2.72,1.94c2.68,1.911,2.623,4.38,1.029,6.608c-1.814,2.538-4.013,3.017-6.319,1.367
			l-2.992-2.135L111.711,64.631z M108.576,72.095l1.329,0.946c1.437,1.027,2.593,1.061,4.032-0.949
			c1.091-1.528,1.148-3.007-0.442-4.137l-1.294-0.929L108.576,72.095z"/>
		<path class="st1" d="M131.853,75.626c-0.064-1.069-0.869-1.86-1.95-1.945c-1.892-0.154-2.81,1.472-2.94,3.131
			c-0.133,1.658,0.52,3.408,2.411,3.561c1.239,0.096,2.006-0.664,2.444-1.746l1.565,0.879c-0.912,1.853-2.251,2.674-4.139,2.527
			c-3.038-0.244-4.362-2.679-4.149-5.368c0.215-2.692,2.103-4.875,4.937-4.647c1.905,0.152,3.283,1.27,3.577,3.301L131.853,75.626z"
			/>
		<path class="st1" d="M135.862,72.228l3.848-0.981c1.958-0.502,3.408,0.38,3.822,2.007c0.528,2.087-0.742,2.919-1.134,3.2
			l3.001,3.215l-2.007,0.512l-2.651-2.959l-1.658,0.422l0.864,3.412l-1.738,0.441L135.862,72.228z M138.694,76.107l1.892-0.48
			c0.88-0.224,1.385-0.91,1.164-1.782c-0.218-0.845-0.923-1.246-2.132-0.94l-1.631,0.414L138.694,76.107z"/>
		<path class="st1" d="M154.638,68.766c1.504,2.244,1.385,5.123-0.978,6.71c-2.36,1.591-5.073,0.612-6.581-1.63
			c-1.503-2.243-1.385-5.121,0.979-6.708C150.418,65.546,153.13,66.523,154.638,68.766 M148.63,72.802
			c0.93,1.387,2.529,2.35,4.104,1.292c1.574-1.061,1.284-2.9,0.353-4.287c-0.928-1.384-2.531-2.346-4.102-1.29
			C147.41,69.575,147.702,71.421,148.63,72.802"/>
		<path class="st1" d="M159.22,66.581c1.194,0.061,2.183-0.506,2.878-1.438c0.516-0.698,0.967-1.796,0.222-2.351
			c-0.6-0.448-1.192-0.019-2.186,0.825l-0.824,0.702c-1.191,1.013-2.439,1.752-3.852,0.701c-1.619-1.202-1.257-3.311-0.198-4.738
			c0.974-1.308,2.261-2.032,3.908-2.04l0.024,1.864c-0.973-0.155-1.909,0.246-2.602,1.181c-0.61,0.824-0.764,1.677-0.22,2.079
			c0.636,0.474,1.319-0.133,2.149-0.846l0.905-0.782c1.088-0.953,2.347-1.68,3.806-0.597c1.876,1.393,1.218,3.634,0.036,5.221
			c-0.937,1.264-2.458,2.164-4.071,2.101L159.22,66.581z"/>
		<path class="st1" d="M165.386,56.616c1.152-0.327,1.908-1.18,2.271-2.282c0.269-0.827,0.345-2.014-0.536-2.3
			c-0.718-0.234-1.138,0.357-1.813,1.476l-0.555,0.929c-0.81,1.339-1.759,2.436-3.433,1.889c-1.916-0.627-2.243-2.745-1.69-4.436
			c0.505-1.551,1.497-2.648,3.061-3.178l0.609,1.765c-0.968,0.158-1.729,0.838-2.09,1.943c-0.316,0.983-0.191,1.841,0.448,2.046
			c0.754,0.246,1.211-0.55,1.774-1.485l0.606-1.029c0.727-1.251,1.697-2.343,3.423-1.778c2.222,0.725,2.306,3.061,1.692,4.943
			c-0.49,1.5-1.649,2.836-3.196,3.286L165.386,56.616z"/>
	</g>
	<polygon class="st2" points="138.31,49.617 138.31,63.829 123.522,63.829 123.522,49.617 108.733,49.617 108.733,35.352 
		123.522,35.352 123.522,21.143 138.31,21.143 138.31,35.352 153.103,35.352 153.103,49.617 	"/>
	<g>
		<path class="st1" d="M9.261,23.476v3.789c0,0.34-0.018,0.535,0.065,0.681c0.145,0.275,0.534,0.275,0.582,0.275
			c0.292,0,0.583-0.016,0.874-0.016v1.926c-0.161,0.034-0.745,0.131-1.311,0.131c-0.179,0-0.355,0-0.517-0.017
			c-0.228-0.018-0.973,0-1.539-0.518c-0.648-0.567-0.617-1.425-0.617-2.202v-4.064H5.57v-1.522h1.228V19.3h2.463v2.653h1.651v1.523
			H9.261z"/>
		<path class="st1" d="M17.34,30.196v-4.42c0-0.649,0.033-1.508-0.582-1.929c-0.21-0.145-0.453-0.208-0.697-0.208
			c-0.13,0-0.454,0.031-0.743,0.226c-0.535,0.372-0.6,0.955-0.6,2.119v4.212h-2.494V18.765h2.494l0.016,3.87
			c0.049-0.049,0.26-0.293,0.486-0.455c0.776-0.599,1.554-0.663,1.91-0.663c1.134,0,1.781,0.534,2.056,0.843
			c0.179,0.194,0.326,0.436,0.407,0.68c0.143,0.372,0.224,0.792,0.224,1.601v5.555H17.34z"/>
		<path class="st1" d="M23.317,26.488c0,0.082-0.017,0.275,0.031,0.503c0.195,0.987,0.891,1.602,1.895,1.602
			c0.144,0,0.47-0.016,0.81-0.144c0.842-0.293,1.213-1.151,1.327-1.362l1.879,0.973c-0.342,0.499-0.519,0.729-0.714,0.955
			c-1.246,1.376-2.866,1.49-3.498,1.49c-0.257,0-0.857-0.017-1.521-0.228c-1.878-0.582-2.752-2.234-2.752-4.145
			c0-0.519,0.031-2.089,1.083-3.302c0.518-0.583,1.409-1.344,3.256-1.344c0.566,0,2.251,0.064,3.303,1.537
			c0.955,1.312,0.921,3.06,0.94,3.465H23.317z M25.859,23.427c-0.341-0.161-0.616-0.161-0.763-0.161
			c-0.987,0-1.441,0.729-1.57,1.021c-0.065,0.145-0.128,0.323-0.195,0.648h3.45C26.747,24.658,26.7,23.8,25.859,23.427"/>
		<path class="st1" d="M15.731,57.118v-4.671c0-0.684,0.035-1.591-0.615-2.037c-0.223-0.154-0.479-0.222-0.736-0.222
			c-0.136,0-0.479,0.036-0.787,0.241c-0.564,0.393-0.632,1.007-0.632,2.24v4.449h-2.636v-12.08h2.636l0.016,4.089
			c0.052-0.052,0.275-0.309,0.513-0.481c0.822-0.631,1.644-0.697,2.019-0.697c1.198,0,1.883,0.564,2.173,0.887
			c0.188,0.205,0.342,0.462,0.427,0.718c0.154,0.395,0.24,0.841,0.24,1.697v5.867H15.731z"/>
		<path class="st1" d="M25.311,57.118v-0.84c-0.186,0.204-0.29,0.308-0.392,0.395c-0.325,0.256-1.111,0.701-2.208,0.701
			c-0.204,0-1.198,0-1.898-0.55c-0.992-0.785-0.908-2.222-0.908-3.317v-5.322h2.652v5.561c0,0.566,0.016,0.994,0.497,1.283
			c0.153,0.086,0.377,0.206,0.77,0.206c0.838,0,1.283-0.479,1.403-0.803c0.084-0.225,0.102-0.446,0.102-0.686v-5.561h2.616v8.933
			H25.311z"/>
		<path class="st1" d="M39.666,57.118v-4.69c0-0.923,0-1.453-0.241-1.83c-0.204-0.342-0.613-0.51-0.99-0.51
			c-0.222,0-0.84,0.05-1.165,0.629c-0.204,0.361-0.188,0.737-0.188,1.541v4.86h-2.618v-5.305c0-0.856-0.118-1.232-0.511-1.49
			c-0.224-0.153-0.497-0.222-0.772-0.222c-0.12,0-0.461,0-0.752,0.222c-0.549,0.414-0.564,1.113-0.564,1.695v5.1h-2.601v-8.933
			h2.601l0.015,0.925c0.157-0.189,0.259-0.308,0.447-0.464c0.341-0.27,0.992-0.697,2.069-0.697c0.205,0,1.129,0.014,1.78,0.427
			c0.273,0.17,0.495,0.392,0.718,0.615c0.325-0.274,0.445-0.359,0.633-0.478c0.307-0.189,1.044-0.564,2.019-0.564
			c0.308,0,1.557,0.014,2.293,0.972c0.426,0.532,0.445,1.096,0.445,2.379v5.818H39.666z"/>
		<path class="st1" d="M48.836,57.118v-0.807c-0.188,0.139-0.358,0.259-0.547,0.38c-0.325,0.22-1.078,0.665-2.189,0.665
			c-1.609,0-2.346-0.873-2.636-1.471c-0.188-0.377-0.291-0.822-0.291-1.25c0-1.606,1.438-2.377,1.831-2.549
			c0.667-0.288,1.882-0.529,3.574-0.835v-0.499c0-0.308-0.05-1.078-1.008-1.078c-0.77,0-1.128,0.361-1.267,0.649
			c-0.033,0.072-0.084,0.207-0.119,0.394h-2.636c0.036-0.359,0.052-1.129,0.72-1.795c0.736-0.719,1.712-0.856,2.019-0.907
			c0.513-0.066,0.94-0.066,1.147-0.066c1.248,0,2.942,0.288,3.542,1.571c0.102,0.24,0.188,0.481,0.188,0.995v5.215
			c0,0.772,0.034,1.062,0.256,1.388H48.836z M46.886,53.402c-0.102,0.037-0.206,0.071-0.307,0.121
			c-0.651,0.274-0.822,0.651-0.822,0.992c0,0.052,0.017,0.241,0.103,0.412c0.102,0.173,0.359,0.496,0.906,0.496
			c0.479,0,0.89-0.274,1.01-0.36c0.77-0.548,0.802-1.385,0.802-2.223L46.886,53.402z"/>
		<path class="st1" d="M57.886,57.118v-5.05c0-0.597-0.016-1.043-0.103-1.283c-0.12-0.307-0.444-0.716-1.196-0.716
			c-0.12,0-0.565,0-0.892,0.274c-0.445,0.34-0.495,0.889-0.495,1.949v4.826h-2.636v-8.915h2.67v0.77
			c0.086-0.086,0.189-0.222,0.411-0.393c0.325-0.24,1.044-0.617,2.105-0.617c0.204,0,0.958,0.018,1.591,0.361
			c1.093,0.581,1.179,1.591,1.179,2.686v6.108H57.886z"/>
	</g>
	<path class="st1" d="M61.853,45.038h2.619v2.036h-2.619V45.038z M61.853,48.185h2.619v8.933h-2.619V48.185z"/>
	<g>
		<path class="st1" d="M69.76,50.016v4.003c0,0.359-0.018,0.566,0.068,0.72c0.155,0.29,0.566,0.29,0.616,0.29
			c0.308,0,0.615-0.017,0.924-0.017v2.034c-0.171,0.037-0.786,0.139-1.385,0.139c-0.189,0-0.377,0-0.548-0.019
			c-0.24-0.015-1.026,0-1.626-0.547c-0.683-0.597-0.651-1.505-0.651-2.325V50h-1.299v-1.61h1.299v-2.787h2.602v2.805h1.746v1.608
			H69.76z"/>
		<path class="st1" d="M77.133,57.835c-0.206,0.634-0.411,1.18-0.872,1.676c-0.565,0.583-1.079,0.685-1.864,0.685h-1.9v-2.102h1.198
			c0.615,0,0.82-0.345,0.82-0.654c0-0.24-0.05-0.427-0.188-0.854c-0.085-0.274-0.17-0.547-0.258-0.838l-2.343-7.563h2.805
			l1.473,6.401l1.472-6.401h2.806L77.133,57.835z"/>
		<path class="st1" d="M71.903,43.48c-0.472,0.395-1.435,0.964-2.98,0.964c-0.427,0-2.099-0.081-3.235-1.185
			c-0.489-0.472-1.184-1.48-1.184-3.201c0-0.474,0.031-1.815,0.964-2.935c0.566-0.679,1.702-1.532,3.784-1.402
			c0.966,0.046,1.816,0.266,2.589,0.88c1.024,0.837,1.515,2.148,1.515,3.471C73.356,41.936,72.472,43.009,71.903,43.48
			 M70.027,37.943c-0.222-0.158-0.553-0.316-1.199-0.316c-0.111,0-0.567,0.032-0.915,0.238c-0.443,0.252-0.964,0.962-0.964,2.177
			c0,0.804,0.269,1.404,0.428,1.656c0.187,0.283,0.662,0.804,1.577,0.804c1.341,0,1.939-1.118,1.939-2.351
			C70.893,38.905,70.499,38.274,70.027,37.943"/>
		<path class="st1" d="M77.409,37.627v6.565h-2.414v-6.565h-1.292v-1.483h1.292V35.12c0-0.127,0-0.742,0.269-1.231
			c0.41-0.772,1.436-1.01,2.209-1.01c0.569,0,1.357,0.126,1.451,0.142v1.83c-0.536,0-0.995-0.016-1.184,0.063
			c-0.204,0.079-0.282,0.268-0.3,0.348c-0.062,0.191-0.046,0.679-0.046,0.882h1.625v1.483H77.409z"/>
		<path class="st1" d="M3.146,32.421v1.162c0.251-0.387,1.231-1.436,3.327-1.436c3.421,0,5.175,2.895,5.175,6.202
			c0,3.828-2.007,6.196-5.175,6.196c-1.253,0-1.892-0.362-2.916-1.002v4.902H0V32.421H3.146z M5.814,42.016
			c1.799,0,2.46-2.006,2.46-3.851c0-0.798-0.25-3.534-2.37-3.534c-1.299,0-2.507,1.14-2.507,3.899
			C3.397,40.513,4.194,42.016,5.814,42.016"/>
		<path class="st1" d="M18.963,44.683c-3.1,0-6.382-1.686-6.382-6.381c0-3.01,1.823-6.246,6.268-6.246
			c4.992,0,6.521,3.464,6.521,6.314C25.37,42.221,22.951,44.683,18.963,44.683 M18.827,34.837c-1.322,0-2.713,1.004-2.713,3.487
			c0,1.982,0.843,3.555,2.895,3.555c1.936,0,2.802-1.617,2.802-3.395C21.811,35.953,20.741,34.837,18.827,34.837"/>
	</g>
	<polygon class="st1" points="40.092,44.32 36.286,44.32 34.531,36.387 32.751,44.32 28.899,44.32 25.64,32.42 29.333,32.42 
		30.995,40.74 32.797,32.42 36.535,32.42 38.176,40.808 40.022,32.42 43.647,32.42 	"/>
	<g>
		<path class="st1" d="M47.542,39.099v0.137c0,1.594,1.096,2.825,2.713,2.825c1.664,0,2.643-1.141,3.008-2.12l2.645,1.368
			c-1.346,2.255-3.465,3.442-5.927,3.442c-3.623,0-6.017-2.301-6.017-6.153c0-2.988,1.46-6.543,6.109-6.543
			c4.467,0,5.971,3.579,5.971,6.884v0.16H47.542z M52.422,36.911c-0.047-1.322-0.936-2.347-2.371-2.347
			c-1.665,0-2.349,1.389-2.509,2.347H52.422z"/>
		<path class="st1" d="M60.99,32.421v1.23c0.297-0.25,0.615-0.569,1.389-0.889c0.958-0.385,1.619-0.456,2.052-0.479v3.102
			l-1.162,0.182c-1.846,0.295-2.189,0.776-2.189,2.051v6.701h-3.486V32.421H60.99z"/>
	</g>
</g>
</svg>
