<svg id="Layer_1" enable-background="new 0 0 510.696 510.696" height="512" viewBox="0 0 510.696 510.696" width="512" xmlns="http://www.w3.org/2000/svg"><g><circle cx="255.346" cy="153.455" fill="#24edd6" r="146.259"/><path d="m171.925 256.876c-57.118-57.118-57.118-149.724 0-206.842 26.014-26.014 59.39-40.175 93.421-42.493-40.69-2.772-82.317 11.389-113.421 42.493-57.118 57.118-57.118 149.724 0 206.842 31.104 31.104 72.731 45.265 113.421 42.493-34.031-2.318-67.407-16.479-93.421-42.493z" fill="#21cbb8"/><path d="m411.829 323.858v-86.662l21-21h7.5v98l-19.081 19.081z" fill="#ffdaaa"/><path d="m98.863 323.858v-86.662l-21-21h-7.5v98l19.083 19.08z" fill="#ffdaaa"/><path d="m85.172 352.525v-14.977l24.034-24.034h14.977l82.181 82.181v107.5h-86.181v-31.681l-98.319-98.319v-178h27.5l21 21v98l19.081 19.081-4.272 4.272v14.977c62.443 62.445 62.703 62.704-.001 0z" fill="#ffdaaa"/><path d="m425.52 352.525v-14.977l-24.034-24.034h-14.976l-82.181 82.181v107.5h86.181v-31.681l98.319-98.319v-178h-27.5l-21 21v98l-19.081 19.081 4.272 4.272v14.977c-62.444 62.445-62.704 62.704 0 0z" fill="#ffdaaa"/><path d="m250.614 88.36-15.787-10.215 12.231-70.7c40.137-2.285 81.036 11.924 111.71 42.598 22.539 22.539 27.185 34.135 36.789 65.578l-48.281 18.704-64.764-45.643z" fill="#e1fd9e"/><path d="m151.934 256.877c37.685 37.685 89.877 49.572 138.084 37.528l-3.561-40.188-52.719-34.047-32.718 9.901-28.116-29.452-54.039 2.051c7.066 19.456 17.476 38.614 33.069 54.207z" fill="#e1fd9e"/><path d="m110.032 153.07 48.553 9.403 8.354-37.61 29.497-12.357 3.724-23.523-21.062-58.878c-9.333 5.804-19.075 11.831-27.173 19.929-28.223 28.222-41.568 66.046-41.893 103.036z" fill="#e1fd9e"/><path d="m348.311 264.678c3.278-2.74 7.383-4.727 10.457-7.801 26.885-26.885 40.193-62.556 41.753-97.771l-22.678-.167-39.004 32.819-12.379 45.812z" fill="#e1fd9e"/><g fill="#ffb680"><path d="m431.829 237.196 8.5-8.5v-12.5h-7.5l-21 21v86.662l9.419 9.419 10.581-10.581z"/><path d="m90.363 314.196v-85.5l-12.5-12.5h-7.5v98l19.083 19.08 9.417-9.418v-1.164z"/><path d="m41.863 373.196v-178h-20v178l98.319 98.319v31.681h20v-31.681z"/><path d="m109.444 333.277 17.25-17.25-2.512-2.512h-14.976l-9.762 9.762z"/><path d="m441.248 333.277 19.081-19.081v-98l21-21h-20l-21 21v98l-9.081 9.081z"/><path d="m403.998 316.027-2.512-2.512h-14.976l-82.181 82.181v107.5h20v-107.5z"/></g><path d="m302.512 88.682-31.897-.322-15.787-10.215 12.19-70.467c-6.641-.527-13.311-.611-19.96-.233l-12.231 70.7 15.787 10.215 31.897.322 64.764 45.643 12.906-5z" fill="#c2f739"/><path d="m171.934 256.877c-15.592-15.592-26.003-34.751-33.07-54.207l34.738-1.319-.699-.733-54.039 2.051c7.068 19.456 17.478 38.614 33.07 54.207 30.854 30.854 71.432 44.404 111.587 41.696-33.368-2.272-65.859-15.967-91.587-41.695z" fill="#c2f739"/><path d="m221.019 230.07 19.1-5.78-6.382-4.121-17.201 5.206z" fill="#c2f739"/><path d="m130.032 153.07c.325-36.989 13.67-74.814 41.893-103.036 3.418-3.418 7.137-6.453 10.986-9.271l-3.813-10.658c-9.333 5.804-19.075 11.831-27.173 19.929-28.223 28.222-41.567 66.047-41.893 103.036l48.553 9.403.825-3.714z" fill="#c2f739"/><path d="m346.459 237.569 12.379-45.812 38.83-32.673-19.826-.146-39.004 32.819-12.379 45.812 21.852 27.108c3.278-2.74 7.383-4.727 10.457-7.801.603-.603 1.192-1.216 1.781-1.828z" fill="#c2f739"/><path d="m366.58 47.595-10.848 10.36c14.513 15.195 25.18 33.142 31.535 52.609-.664.26-1.044.551-.937.893l-38.017 14.733-63.385-44.68-32.062-.322-9.805-6.346 10.348-59.82c.008 0 .016-.004.025-.004 33.772-.461 66.309 11.236 91.95 33.149l9.746-11.402c-60.861-52.017-151.772-48.456-208.506 8.268-60.09 60.089-60.1 157.357 0 217.457 59.949 59.938 157.494 59.941 217.446 0 59.323-59.325 59.971-154.734 2.51-214.895zm-191.76-6.855 17.632 49.27-2.77 17.5-29.223 12.242-7.614 34.276-36.098-6.992c2.051-43.266 23.878-81.885 58.073-106.296zm106.513 249.274c-64.772 12.249-127.266-22.307-152.869-79.901 3.467-.194-12.877.493 41.347-1.566l28.968 30.344 33.808-10.231 46.723 30.175 2.66 30.012c-.352.072-.547.518-.637 1.167zm15.457-3.857-3.186-35.948-58.715-37.919-31.629 9.572-27.266-28.561-53.104 2.002c-3.312-10.606-5.349-21.657-6.034-32.967l47.468 9.193 9.094-40.944 29.771-12.472 4.677-29.547-20.052-56.051c15.442-8.613 32.444-14.206 50.185-16.425l-11.41 65.959 21.775 14.094 31.738.318 66.135 46.619 45.022-17.448c1.755 8.557 2.715 17.331 2.832 26.231l-18.962-.14-42.92 36.114-13.99 51.769 20.32 25.208c-12.84 9.635-26.982 16.749-41.749 21.343zm53.938-31.617c-.336-.03-.687.033-1.003.247l-15.028-18.643 10.769-39.854 35.089-29.525 11.932.088c-.066.696.255 1.425.798 2.095-3.546 32.667-18.467 62.78-42.557 85.592z"/><path d="m106.363 306.015v-71.926l-25.394-25.394h-7.497l-21-21h-38.106v188.606l98.32 98.32v36.074h101.18v-56.8h-15v41.8h-71.18v-27.287l-98.32-98.32v-167.392h16.894l16.606 16.606v98l15.974 15.974-1.164 1.164v21.193l49.126 49.126 10.606-10.606-44.733-44.733v-8.767l19.636-19.637h8.767l77.787 77.787v40.094h15v-46.307l-86.574-86.574h-20.928zm-15 14.737-1.917 1.917-11.58-11.58v-84.284l13.497 13.497z"/><path d="m458.223 187.696-21 21h-7.5l-25.394 25.394v71.926h-20.926l-86.574 86.574v118.106h101.181v-36.074l98.319-98.319v-188.607zm-38.894 52.606 13.5-13.5v84.287l-11.581 11.581-1.919-1.919zm62 129.787-98.319 98.319v27.287h-71.181v-96.894l77.787-77.787h8.764l19.64 19.641v8.764l-44.733 44.733 10.607 10.606 49.126-49.127v-21.189l-1.165-1.166 15.975-15.975v-98l16.606-16.606h16.894v167.394z"/><path d="m340.346 468.696h15v15h-15z"/><path d="m155.346 468.696h15v15h-15z"/><path d="m307.105 160.955h-14.999v-15h14.999zm-45 0h-15v-15h15zm-45 0h-15v-15h15z" fill="#fff"/></g></svg>