<?xml version="1.0" encoding="utf-8"?>
<svg xml:space="preserve" viewBox="0 0 100 100" y="0" x="0" xmlns="http://www.w3.org/2000/svg" id="圖層_1" version="1.1" style="height: 100%; width: 100%; background: none; shape-rendering: auto;" width="90px" height="150px"><g class="ldl-scale" style="transform-origin: 50% 50%; transform: scale(0.8);"><g class="ldl-ani"><g class="ldl-layer"><g class="ldl-ani" style="transform-origin: 50px 50px; transform: scale(0.91); animation: 0.684932s linear -0.456621s infinite normal forwards running breath-8458c295-3737-46c4-8bbd-fc770659a6d8;"><path fill="#c33737" d="M80.8 22c-3.7 1.6-7.4 3.9-10.8 6.7-5.5-6.7-10.2-13.4-9.3-21.2C49.5 12.1 38.6 18.9 30.3 27c-.6-2-.9-4.1-1-6.4-12 10.9-16.3 30.6-12.7 46 8 38.6 64.6 31.8 67.5-6.2C87 45.6 77.4 34.7 80.8 22z" style="fill: rgb(255, 0, 0);"></path></g></g><g class="ldl-layer"><g class="ldl-ani" style="transform-origin: 50px 50px; transform: scale(0.91); animation: 0.684932s linear -0.570776s infinite normal forwards running breath-8458c295-3737-46c4-8bbd-fc770659a6d8;"><path fill="#f47e60" d="M65.9 47c-2 1-3.6 7.7-5.4 9.4-3.3-3.4-6.5-12.1-6.4-16.3-6.1 3-11.5 12.4-15.7 17.1-.4-1-1.1-7.5-1.2-8.7-6.2 6.3-7.8 17-5.1 25 6.1 20.2 37.2 14 37.2-6.3 1.1-8-4.7-13.4-3.4-20.2z" style="fill: rgb(255, 204, 77);"></path></g></g><g class="ldl-layer"><g class="ldl-ani" style="transform-origin: 50px 50px; transform: scale(0.91); animation: 0.684932s linear -0.684932s infinite normal forwards running breath-8458c295-3737-46c4-8bbd-fc770659a6d8;"><ellipse fill="#f8b26a" ry="4.8" rx="8.2" cy="76" cx="49.5" style="fill: rgb(255, 204, 77);"></ellipse></g></g><metadata xmlns:d="https://loading.io/stock/"><d:name>fire</d:name><d:tags>flame,flare,burn,scorch,fire,weather</d:tags><d:license>pro</d:license><d:slug>cu4w4x</d:slug></metadata></g></g><style id="breath-8458c295-3737-46c4-8bbd-fc770659a6d8" data-anikit="">@keyframes breath-8458c295-3737-46c4-8bbd-fc770659a6d8
{
  0% {
    animation-timing-function: cubic-bezier(0.9647,0.2413,-0.0705,0.7911);
    transform: scale(0.9099999999999999);
  }
  51% {
    animation-timing-function: cubic-bezier(0.9226,0.2631,-0.0308,0.7628);
    transform: scale(1.02994);
  }
  100% {
    transform: scale(0.9099999999999999);
  }
}</style><!-- [ldio] generated by https://loading.io/ --></svg>