<svg id="Calque_1" data-name="Calque 1" xmlns="http://www.w3.org/2000/svg" viewBox="0 0 118.64 109.33"><defs><style>.cls-1{fill:#fff;stroke:#010101;}.cls-1,.cls-2{stroke-miterlimit:10;}.cls-2{fill:#eb585b;stroke:#fff;}</style></defs><title>logoaustraliasavior</title><path class="cls-1" d="M45.5,13.7c3-4.59,3.44-10.48,10.61-9.41L54.48,1.16,70.76,4.49a4.15,4.15,0,0,1,0,1.59C67,13.85,67,13.84,74.28,18.37c.44.28.89.55,1.35.82,6.47,3.87,8.26,2.81,9.21-5.08.55-4.52,1.47-9,2.22-13.51l2-.09c.6,1.29,1.17,2.58,1.8,3.85,1.68,3.37,2.15,7.06,5.44,10,2.39,2.18,2.4,7,3.45,10.64.34,1.16.26,2.92,1,3.39,7.55,4.74,9.77,13.33,14.65,20,5.51,7.52,2,20-3.36,26.88-1,1.23-2.34,2.17-3.15,3.48-4,6.39-6.29,14.47-15.76,14.91-4-.91-8-1.6-11.83-2.83-1.69-.54-4.13-2-4.33-3.35-.77-5.11-3.24-6.43-8.62-4.1l1.82-7.22L69,75.29l-2.71,4.53c-.93-1.56-1.59-2.49-2.07-3.49-2.79-5.91-8.8-9.31-14.91-7.23-5.4,1.83-10.77,3.32-15.9,6.94C29,79.17,22.26,80.52,16.57,82.76c-1.72.68-4.43-1.13-6.62-1.78C12.3,71.35,5.56,65.54,2.8,58.32,1,53.58-.09,47.86.84,43c.58-3,5.41-5.34,8.59-7.6a18.85,18.85,0,0,1,6.23-2.58c5.33-1.35,8.45-4.41,9-10,.1-1,1.29-2,2.14-2.8,1.91-1.87,4.3-3.36,5.83-5.48C36.5,9.16,40.76,9.43,45.5,13.7Zm19,33.83c4.12,0,7.58-.11,11,0s6,0,6-4.83c0-4.62-2.14-5.08-5.82-5.09-11.11,0-11.21-.11-11.15-11.1,0-3.63-.32-6-5-6s-5.17,2.42-5,6c.12,1.92-.14,3.87,0,5.78.4,4.24-1.61,5.65-5.59,5.36-2.61-.18-5.25,0-7.88,0-3.6,0-3.68,2.44-3.72,5,0,2.76.46,4.77,4,4.81,4.12.05,9.79-.95,11.93,1.26s1.17,7.89,1.27,12c.09,3.76,2.56,3.47,5.09,3.53,2.72.07,4.92-.16,4.79-3.8C64.42,56.47,64.53,52.31,64.53,47.53Z"/><path class="cls-1" d="M86.29,98.48l11.48,1.46c-1.19,2.91-2,5.7-3.47,8.06-.5.8-3.8,1-4,.63C88.8,105.61,87.75,102.37,86.29,98.48Z"/><path class="cls-2" d="M65.58,48.59c0,5.78-.14,10.82,0,15.84.16,4.4-2.5,4.68-5.79,4.6-3.06-.07-6.06.28-6.16-4.27-.12-5,1.15-11.81-1.53-14.59s-9.45-1.46-14.44-1.52c-4.24,0-4.84-2.49-4.79-5.82,0-3.15.14-6.14,4.49-6.1,3.18,0,6.38-.24,9.55,0,4.8.34,7.24-1.36,6.76-6.49-.22-2.31.09-4.67-.05-7-.27-4.35.39-7.25,6-7.26s6,2.83,6,7.21c-.07,13.31,0,13.42,13.5,13.44,4.44,0,7,.57,7,6.16,0,5.85-3,6-7.26,5.84S70.56,48.59,65.58,48.59Z"/></svg>