<svg id="Calque_1" data-name="Calque 1" xmlns="http://www.w3.org/2000/svg" viewBox="0 0 204.18 225.17"><defs><style>.cls-1{fill:#002664;stroke:#002664;}.cls-2{fill:#d7153a;stroke:#7e8580;}</style></defs><title>nsw (2)</title><path class="cls-1" d="M174.89,171.88c2.91-12.36,5.83-24.73,8.79-37.28H197c-1.57,6.38-3,12.44-4.55,18.46-3.21,12.38-6.64,24.7-9.67,37.12-.86,3.51-2.16,5.35-5.94,4.74a8.58,8.58,0,0,0-3,0c-4.9,1-6.46-1.46-7.39-5.92A256,256,0,0,0,158,158.11c-2.43,10-4.81,20-7.34,29.94-.58,2.28-1.35,6-2.65,6.32-3.79.83-7.89.31-11.86.13-.48,0-1.15-1.15-1.33-1.87-5-19.24-9.95-38.49-15-58h13.65L142,170.93l.95.14c1.21-4.53,2.44-9,3.61-13.59,1.65-6.43,3.45-12.83,4.8-19.33.6-2.89,1.78-4.1,4.64-3.71a6.67,6.67,0,0,0,1,0c7.92-.06,7.91-.06,9.78,7.7q3.54,14.76,7.13,29.52Z"/><path class="cls-1" d="M53.49,171.74V134.88h12.7v59.53c-7.16.8-13.71,1.9-19.14-5.69-7.15-10-15.67-19-23.61-28.45-.92-1.09-2-2.08-3.59-3.81v38H6.92V134.75c6.8-.26,13.26-2,18.68,5.59C33,150.74,42,160.06,50.28,169.85c.72.85,1.36,1.76,2,2.65Z"/><path class="cls-2" d="M136.4,34.56c1,5.69,2.08,10.29,2.51,15,1.35,14.62,1.63,29.25-2.44,43.55-3,10.48-9.74,17.65-20.25,20.89-8.55,2.65-14.35-1.11-15.77-9.92-1.83-11.4.45-22.14,5.45-32.38,6.59-13.5,16-24.81,27-34.88A35.19,35.19,0,0,1,136.4,34.56Z"/><path class="cls-2" d="M98.51,113.13c-4.8,2.37-9.14,1.54-13.4-.16C73.38,108.27,67.89,98.75,66,87a135.7,135.7,0,0,1,.79-48.1,22.41,22.41,0,0,1,1.46-3.63,21.87,21.87,0,0,1,3.49,2.08C82.4,47,91.73,57.75,97.73,71a11.53,11.53,0,0,1,.49,7.38C94.89,89.94,92.94,101.38,98.51,113.13Z"/><path class="cls-2" d="M74.73,112.69c-12.34-2-19.71-8.45-25.34-17.39-6.9-11-10.29-23.19-11.33-35.82-1-11.72-.59-23.58-.31-35.36.13-5.6,1.88-6.58,7-4.23,7,3.25,13.76,7.08,20.1,10.39C59.67,45,59.08,59,59.6,73.14,60.13,87.49,62.34,101.39,74.73,112.69Z"/><path class="cls-2" d="M129.84,112.56C145.39,96.77,145,77.33,144.28,57.93A139.26,139.26,0,0,0,142,40.13c-.5-3-1.65-5.91-2.82-10,6.59-3.41,13.77-7.15,21-10.84,3.85-2,5.79-.06,6.08,3.61,1.88,23.79,1.26,47.32-9.89,69.19C151,102.76,143,110.59,129.84,112.56Z"/><path class="cls-1" d="M117.26,140.43c-2.46,3.59-4.58,6.71-6.58,9.63-4-1.71-7.73-3.54-11.6-4.8-2.13-.69-4.82-1.13-6.81-.42-2.18.78-4.7,2.67-5.52,4.7-1.23,3.07,1,5.36,4,6.36,5.5,1.83,11.16,3.23,16.57,5.31,9.25,3.56,12.5,9.28,11.38,19.09-.82,7.2-4.88,12-11.56,14.23-13.33,4.53-25.07.93-36.34-7.68,2.61-3.24,5-6.17,7.21-9,4.52,2.07,8.67,4.53,13.15,5.82a20.52,20.52,0,0,0,10.21,0c1.84-.47,4-3.17,4.29-5.1.21-1.6-1.77-4.3-3.48-5.19-3.33-1.75-7.14-2.58-10.76-3.79-2.51-.84-5.11-1.49-7.53-2.54-7.92-3.44-10.61-7.9-10.41-16.83a16.55,16.55,0,0,1,11.59-15.79C96.6,130.46,107,133.22,117.26,140.43Z"/><path class="cls-2" d="M102,66.05C96.29,58.82,90,50.92,83.9,42.92A4.56,4.56,0,0,1,83,39.38,162.45,162.45,0,0,1,101.66.86a25.17,25.17,0,0,1,3,3.87q7.86,16.35,15.55,32.8c1.15,2.44.75,4.27-1.18,6.58C112.87,51.44,107.23,59.18,102,66.05Z"/><path class="cls-2" d="M169.25,69.47c10.91,6.21,21.36,11.94,31.55,18.09,3.8,2.29,3.89,5.43,0,8a103.32,103.32,0,0,1-18.81,10c-11.18,4.26-23,5.86-36,6.37C160,101,165.51,86.49,169.25,69.47Z"/><path class="cls-2" d="M34.75,69.45c3.55,17.07,9.24,31.16,23,42.32-20-1.45-38-4.27-53.6-15.34C-.55,93.09-.77,89.87,3.8,87.1,13.69,81.11,23.88,75.61,34.75,69.45Z"/><path class="cls-2" d="M19.75,71.65C16.42,65.18,12.65,59,10,52.33c-2-5.07-.2-6.94,5.4-6.83s11.14.5,16.62.76c.54,5.85,1.23,10.94,1.33,16a6,6,0,0,1-2.65,4.29C27.61,68.43,24.17,69.67,19.75,71.65Z"/><path class="cls-2" d="M172.22,45.53c5.75,0,11.38,0,17,0,5.25.05,6.92,1.89,4.89,6.78-2.71,6.52-6.3,12.68-9.66,19.26-4.49-2-8.22-3.32-11.61-5.26-1.15-.65-2.07-2.81-2-4.25C171,57.11,171.62,52.16,172.22,45.53Z"/><path class="cls-2" d="M117.57,17.38c4.3-3.4,8.44-6.72,12.63-10,2.63-2,4.75-2.29,5.68,1.73,1,4.36,2.39,8.63,3.26,13a4.63,4.63,0,0,1-1.32,3.71c-4,3.49-8.21,6.73-12.68,10.32C122.66,30,120.25,24,117.57,17.38Z"/><path class="cls-2" d="M78.84,36.35,65.49,25.66c-.13-.11-.39-.25-.37-.31,1.51-6.27,3-12.53,4.74-18.74a9.64,9.64,0,0,1,3.91,1c4.27,3.16,8.34,6.58,12.61,10Z"/><path class="cls-2" d="M95.7,118.88c-12.49,2.08-24.32,4.4-36.26,5.88-5.67.7-11.55-.16-17.33-.42a4,4,0,0,1-2.71-1.08C38.3,121.8,37,120,37,118.42c0-.85,2.73-2.39,4.18-2.35,3.63.11,7.22,1.25,10.85,1.42,6.46.31,12.94.12,19.4.32C79.4,118.06,87.4,118.51,95.7,118.88Z"/><path class="cls-2" d="M111,117.74c8.24,0,16.48.22,24.7-.07,7.93-.28,15.85-1.08,23.77-1.69,2.92-.22,6.83-1.5,7.66,2.3s-3.05,5.46-6.14,5.71a103.56,103.56,0,0,1-18.38.19c-5.4-.52-10.64-2.61-16-3.49-5.14-.84-10.38-1-15.57-1.48Z"/><path class="cls-1" d="M137.61,205.08c-.1,6,.42,12.09-.3,18.08h-2.22c-.21-3.93-.41-7.86-.67-13-2.18,2.95-3.83,5.21-5.79,7.87l-5.61-7.7c-.37,4.82-.68,8.87-1,12.92l-1.81-.17V205.2c1.6-.13,1.6-.13,8.38,7.62q3.69-4.45,7.39-8.89Z"/><path class="cls-1" d="M141.44,204.85h12.89l.29,1.65-10,1.11v4.67l8.73.42.16,1.77-9,1.09v4.87h10.19c-1.75,3.14-4.74,3.55-13.27,2.24Z"/><path class="cls-1" d="M160.2,204l10.44,12.5c2.38-3.82-1.08-8.78,3.52-13.12v20.19c-5.92-2.68-7.53-8.88-12.94-13.5v13.08l-1.95,0V205Z"/><path class="cls-1" d="M112.55,216.43c.32-4.27.61-8.06.9-11.85l1.76.17v18.13l-1,.71q-5.14-6.36-10.28-12.71l-1.12.06v13c-3.14-3.23-3.51-7.48-2.48-19.47C106.58,206.24,107.59,213.07,112.55,216.43Z"/><path class="cls-1" d="M84.93,217c-.22,1.69-.47,3.58-.74,5.61-2.71-1.68-3.2-6.44-2-18,4.81.51,10.47-2.22,13.9,3.21,2,3.19.38,6.38-3.32,8.26,1.25,2,2.45,4,3.81,6.18C90.77,224.12,91.32,213.42,84.93,217Zm-.11-2.17c3.41-1.15,6-1.91,8.52-3,.3-.13,0-2.87-.36-3-2.59-.77-5.31-1.14-8.16-1.68Z"/><path class="cls-1" d="M77.93,206.71l-10,.77-.42,4.65,8.93.63.27,1.58-8.86,1.33v4.8H78.57c-2.08,3.11-4.15,3.39-13.57,2.32V204.91H77.69Z"/><path class="cls-1" d="M43.75,213.6a9.68,9.68,0,0,1-9.54,9.58,9.37,9.37,0,1,1,.35-18.72A9,9,0,0,1,43.75,213.6Zm-9.88,7.18a6.71,6.71,0,0,0,6.75-6.58,6.57,6.57,0,0,0-6.34-6.91,6.41,6.41,0,0,0-6.67,6.52A6.55,6.55,0,0,0,33.87,220.78Z"/><path class="cls-1" d="M20.61,216.46,14.74,215l0-1.22,7.05-.42c1.09,7.5.14,9.3-4.95,10.18-5.53,1-10.25-2-11.38-7.16-1.2-5.49,1.61-11,6.54-11.6,2.94-.36,6,.6,9.09,1l-.31,2.3c-1.48-.24-3-.91-4.4-.62-2.39.5-5.88,1-6.68,2.59a9.84,9.84,0,0,0,.16,8.14c.92,1.61,4.46,2.15,6.88,2.27C17.8,220.44,19,218.24,20.61,216.46Z"/><path class="cls-1" d="M61.66,205.46c-2.12,5.21-4.2,10.45-6.42,15.62A4.54,4.54,0,0,1,53,223.3c-.41.17-1.72-.88-2-1.63-2.33-5.45-4.51-11-6.89-16.88,5-.36,4.17,3.76,5.39,5.9a71.67,71.67,0,0,1,3.38,7.89c3.18-4.7,3.28-10.68,7-14.41Z"/><path class="cls-1" d="M192.46,206.58l-6.6,1.62v14.89l-2,0c-.13-2.45-.31-4.91-.37-7.37s0-5.21,0-7.71l-6.13-1.27.22-1.51h14.57Z"/></svg>