<?xml version="1.0"?>
<svg xmlns="http://www.w3.org/2000/svg" height="512px" viewBox="0 0 59 58" width="512px" class=""><g><g id="033---Throw-Bucket-of-Water" fill="none"><path id="Shape" d="m49 46.89c-2.51 0-3.79-1.13-6.59-3-.4639192-.3037566-.5937566-.9260808-.29-1.39s.9260808-.5937566 1.39-.29l2.75 1.81c1.5300716 1.0024855 3.4854497 1.0894109 5.09844.2266486 1.6129903-.8627622 2.626094-2.5374802 2.64156-4.3666486v-4.88c0-.5522847.4477153-1 1-1s1 .4477153 1 1v4.88c.0026546 1.8582474-.7336712 3.6412949-2.0467136 4.9562132-1.3130425 1.3149183-3.0950371 2.0537887-4.9532864 2.0537868z" fill="#7f8c8d" data-original="#7F8C8D" class="active-path" style="fill:#898989" data-old_color="#7f8c8d"/><path id="Shape" d="m59 18.93c-.026638 1.6659025-.9636318 3.1833751-2.4411193 3.9534216-1.4774874.7700464-3.2580652.6689353-4.6388807-.2634216-2.2689523-1.4435175-5.2732715-.8338175-6.8 1.38l-19.81-11 1.69-2s2-3 7-4c4.13-.83 5.53-.29 7.58-1.2 1.0970408-.45949835 2.3659958-.08939693 3.0440092.88781092.6780133.97720785.580462 2.29542848-.2340092 3.16218908-.25.25-.85.86-1.53 1.48 2.91.53 7.13 3.59 12.53 3.83 2.0193768.0857795 3.6118211 1.748803 3.61 3.77z" fill="#84b5cb" data-original="#84B5CB" class=""/><path id="Shape" d="m13.15 30c4.31-9.19 2.45-5.24 8.25-17.58l16.6 9.69 14.59 12-24.45 22.77c-1.3711723 1.3212414-3.4836522 1.4927497-5.05.41l-10.51-7.29z" fill="#95a5a5" data-original="#95A5A5" class="" style="fill:#898989" data-old_color="#95a5a5"/><path id="Shape" d="m53.45 34.64-32.87-22.79c-.9085084-.6296046-1.1346046-1.87649159-.505-2.785s1.8764916-1.13460461 2.785-.505l32.87 22.79c.5877019.4072828.9134781 1.0971628.8546118 1.809769-.0588663.7126061-.4934318 1.3396766-1.14 1.645-.6465682.3053233-1.4069099.2425138-1.9946118-.164769z" fill="#bdc3c7" data-original="#BDC3C7" class="" style="fill:#898989" data-old_color="#bdc3c7"/><path id="Shape" d="m31 37.5c.0026715.6638566-.2598627 1.3012947-.729284 1.770716s-1.1068594.7319555-1.770716.729284h-3c1.3807119 0 2.5 1.1192881 2.5 2.5s-1.1192881 2.5-2.5 2.5h-4c1.3807119 0 2.5 1.1192881 2.5 2.5s-1.1192881 2.5-2.5 2.5c-4.46 0-16.59 0-18-.16-1.46717339-.2376851-2.53912805-1.5138216-2.52-3v-17.84c.00189965-1.795482 1.19994792-3.3697093 2.93-3.85l12.66-2.45-3.42 7.3h12.35c1.3807119 0 2.5 1.1192881 2.5 2.5s-1.1192881 2.5-2.5 2.5h3c1.3807119 0 2.5 1.1192881 2.5 2.5z" fill="#fdd7ad" data-original="#FDD7AD" class=""/><circle id="Oval" cx="57" cy="2" fill="#3b97d3" r="2" data-original="#3B97D3" class=""/><circle id="Oval" cx="51" cy="8" fill="#3b97d3" r="2" data-original="#3B97D3" class=""/><path id="Shape" d="m44.5 9.72c-.11.18-1.48 1.46-1.64 1.61h-.2c-3.14-.62-5.49.69-6 .69-.4787354-.0035851-.88777-.3459746-.9755562-.8166061s.1703064-.9374592.6155562-1.1133939c2.6007769-1.10155805 5.510585-1.23285427 8.2-.37z" fill="#3b97d3" data-original="#3B97D3" class=""/><g fill="#f9c795"><path id="Shape" d="m21.5 45h-9.5c-.5522847 0-1-.4477153-1-1s.4477153-1 1-1h9.5c.5522847 0 1 .4477153 1 1s-.4477153 1-1 1z" data-original="#F9C795" class="" style="fill:#F9C795"/><path id="Shape" d="m28 43c-.2340842 1.1663079-1.2604403 2.0041496-2.45 2h-13.55c-.5522847 0-1-.4477153-1-1s.4477153-1 1-1z" data-original="#F9C795" class="" style="fill:#F9C795"/><path id="Shape" d="m25.5 40h-13.5c-.5522847 0-1-.4477153-1-1s.4477153-1 1-1h13.5c.5522847 0 1 .4477153 1 1s-.4477153 1-1 1z" data-original="#F9C795" class="" style="fill:#F9C795"/><path id="Shape" d="m25.5 35h-13.5c-.5522847 0-1-.4477153-1-1s.4477153-1 1-1h13.5c.5522847 0 1 .4477153 1 1s-.4477153 1-1 1z" data-original="#F9C795" class="" style="fill:#F9C795"/><path id="Shape" d="m31 38c-.2340842 1.1663079-1.2604403 2.0041496-2.45 2h-16.55c-.5522847 0-1-.4477153-1-1s.4477153-1 1-1z" data-original="#F9C795" class="" style="fill:#F9C795"/><path id="Shape" d="m28 33c-.2376343 1.1641656-1.2618285 2.0002425-2.45 2h-13.55c-.5522847 0-1-.4477153-1-1s.4477153-1 1-1z" data-original="#F9C795" class="" style="fill:#F9C795"/></g></g></g> </svg>
