<svg id="Calque_1" data-name="Calque 1" xmlns="http://www.w3.org/2000/svg" viewBox="0 0 150.18 168.44"><defs><style>.cls-1{fill:#fff;}</style></defs><title>wwf(2)</title><path d="M40,124.87c.9,4.76,1.68,9.55,2.72,14.28,1.15,5.27.2,7.29-4.9,8.14-9.21,1.52-17.56-.59-23.1-8.42C7.43,128.52,2.52,117.21,3.38,104c.26-4-.59-8.25-1.43-12.27-4.67-22.58-1.5-43.09,15.48-60a60.63,60.63,0,0,1,6.64-5.26A8.23,8.23,0,0,1,27.26,25C13.26,37.24,6.92,52.33,9.75,70.71,12,85.13,20.09,96,31.61,104.93c0-14.91-.91-29.45.26-43.83C33,47.57,40.73,37,51.6,28.79c1.33-1,2.68-1.95,4-2.94.13-.09.18-.28.27-.42C48.56,12.7,52.86,2.71,66.66.25A12.2,12.2,0,0,1,79.08,4.83c3.57,4.43,4.38,9.7,3.34,15.11-.23,1.16-2.32,2.09-3.69,2.89-3.84,2.24-7.62,4.71-11.7,6.41-2.23.93-5,.5-7.75.11-6.8,5.73-9.72,14.06-11.17,22.77A68.39,68.39,0,0,0,47.56,70c1,10.06,6.6,17.25,16,21.23,5.42,2.31,11.26,3.59,13.11,10.74.4,1.58,5,3.09,7.49,2.88,4.11-.35,7.73-.54,11.44,1.79,3.53,2.21,6.42.8,9-2.42,1.5-1.85,4.12-4,6.22-4,18.66.13,32.94-11.62,33.77-37.1,0-.48.15-.94.43-2.62A61,61,0,0,1,150.16,87c-.49,19.48-4.31,38.39-12.72,56.09-4.66,9.78-12.56,15.73-23.54,17.23-8.82,1.21-12.21-1.92-11.35-10.63.67-6.79,1.43-13.57,2-20.37.17-2.13.23-4.54-.61-6.38s-2.88-4.36-4.42-4.38A7.71,7.71,0,0,0,93.72,122a15.15,15.15,0,0,0-1.84,8.62,278.64,278.64,0,0,0,4.6,27.87c1.4,6.11.68,8.45-5.49,9.37-14.1,2.11-25.86-1.72-33.52-14.36-5-8.24-9.39-16.85-14-25.29-.69-1.25-1.41-2.48-2.12-3.72Zm41-17.51c4.37,7.4,12.94,8.34,16.68,2.18Z"/><path d="M149.64,24.52c-.09,6.13-6.81,13.68-12.88,13.84-1.72,0-3.63-1.59-5.19-2.79-3-2.36-5.68-5.37-8.94-7.34-3-1.83-4.34-3.67-3.54-7.21,1.69-7.48,9-13.57,15.57-12.76C142.43,9.22,149.76,17.17,149.64,24.52Z"/><path d="M62,70.76a17.15,17.15,0,0,1,6.72-13.53c4.5-3.56,9.78-3.7,13.14-.52,3.89,3.68,4.46,9.14,1.21,13.79-1.89,2.7-3.73,5.69-6.3,7.6-2.4,1.79-5.87,3.47-8.63,3.15-4-.45-5.39-4.41-5.88-8.25C62.12,72.18,62,71.36,62,70.76Z"/><path d="M127.86,76.48c-1.88,3.3-3.24,7.11-5.79,9.78-3.32,3.47-8.67,2.41-11-1.7s-5.34-8.41-6-12.92c-.46-3,2-7.08,4.22-9.83,2.53-3.15,6.5-3.15,9.94-.87C124.51,64.43,126.59,69.66,127.86,76.48Z"/><path d="M90.5,101.35c-2.5-1.62-4.9-3-7-4.66-1-.79-2.26-2.37-2.06-3.3A4,4,0,0,1,84.47,91a109.6,109.6,0,0,1,14.09,2c1.09.23,1.84,2.06,2.75,3.15A17.54,17.54,0,0,1,98,98.61C95.53,99.7,92.91,100.5,90.5,101.35Z"/><path class="cls-1" d="M81.06,107.36l16.68,2.18C94,115.7,85.43,114.76,81.06,107.36Z"/></svg>